<svg width="149" height="55" fill="none" xmlns="http://www.w3.org/2000/svg"><g fill="#8CAF31"><path d="M33.8 2v.5l-.1-.1c-.2 0-.4.2-.6 0v.2c-.2 0-.1-.1-.2-.2l.1-.2V2c-.3 0-.2.5-.4.5 0 .3-.2.2-.3.3h.2l-.1.1-1-.1h-.3v-.1h.1v-.1h-.4v-.1c.3 0 0-.1 0-.1-.1 0 .4-.7-.2-.4l-.3-.2h.2v-.2l-.1.1V.9a.2.2 0 0 0 .3 0V.6c.1 0 0 0 0 0l.1.1H31.1 31h.2s0-.1 0 0c.2.2.4 0 .6 0h-.1c0 .1 0 0 0 0s.1-.2.2 0h.3-.2l.2-.1.1-.1h.7c.2 0 0 0 0 0l.1-.1v.1h.1l.1-.1s.2-.1.2 0l.1.1V.9l.1.1v.7h-.1l.2.2Zm-2.2-.2h-.1l-.2.1.2.1.1-.2Zm.6-.2-.4.2h-.1.1c.1-.1.1.2.2 0l.2-.2Zm1.3.2c0-.1 0 0-.1 0-.2-.2 0 0-.1 0l.2.1Z"/><path d="M33.7 2.6s-.2-.1-.2 0c-.2.1 0 .1 0 .2l.1-.2.1.2h.1v-.3ZM33.3 2.7c-.1 0-.3 0-.2.2 0-.1 0-.2.3-.2ZM33.1 3ZM32.8 2.7l.2.1-.2-.1ZM33.8.7ZM76.5 2.3v.3l-.2-.2V3c-.2-.4 0 .2-.2.1l-.4-.1c0-.1-.1-.3-.3-.2v-.1c0-.2 0 0 0 0H75a.1.1 0 0 1-.1 0c-.1.2-.3.1-.4.1-.2 0-.2-.1-.3-.2l-.2.1V3c-.2 0-.3.1-.5-.1-.1-.2-.3-.2-.5 0v-.2c-.1 0-.3-.1-.2-.3v-.1c-.3 0-.2.1-.2.2 0 .4-.3 0-.3.3H72c-.2 0 0 .2-.2.2l-.2-.1c0-.4-.2-.3-.3-.4v-.2l-.1.3v.1s-.3.1-.4 0c0-.1 0 0 0 0l-.4-.1h-.1c-.1.5-.3.1-.4 0a.3.3 0 0 0-.4 0c-.1.1-.1-.2-.2 0 0 0-.1-.1-.1 0 0 0-.2 0-.1.2 0 0-.2.1 0 0l-.5-.2a2 2 0 0 0-.5.2V2.4c0 .2-.2-.2-.2 0l-.1.2h.1s0-.1.1 0l-.1.1h-.4c-.1-.2-.3 0-.5-.2v.1s.2 0 .1.2c0 0-.2-.2-.3 0-.2 0-.3-.4-.5-.2l-.3-.1h-.2l-.3.2v-.2c-.1.1-.2 0-.2 0-.2.2-.4 0-.6.2h-.6c-.2 0 0 0 0 0a3 3 0 0 0-.6.1v-.1l-.1-.2h.2c0-.3.3 0 .4-.2v.1h-.1.2v.1c.2 0 0-.3.2-.3h-.5c-.2 0-.5-.1-.4.3-.2-.1 0 .1-.2.2l-.2-.1c0-.1 0 0 0 0-.1.3-.4 0-.5.2 0 0 0 .1-.1 0 0-.2-.2 0-.3 0-.1 0-.2 0-.2.2h-.1l-.1-.2v-.1h-.1v-.3l-.1-.2v.1c0 .2-.2.2-.1.3l-.2.1-.2-.1v.1h-.2.1v.1s0 .2-.1.1l-.1-.3h-.1v.1l-.1.1V3h-.2c0-.4-.1 0-.3 0v-.1h.1c0-.2 0-.2-.1-.1l-.4-.2h-.1v.1l-.2.1-.2-.1H59s-.1 0 0 0v.2H59V2.4v.1c-.2 0-.3.2-.4 0-.2 0-.1.2-.2.1V3c.2 0 .1 0 0 .1l-.1-.4V3H58v-.1l.1-.1v-.2l-.2.2c0-.1-.2 0-.1-.1l-.1-.1v.2h-.3l-.1-.1s-.1.1 0 .2H57c0 .5-.4 0-.5.3v-.2l.1-.2c0 .2-.4-.1-.4.3V3h-.3L56 3l.1-.2v-.2.2c-.1-.1-.1-.2-.3 0v-.4l.2.2v-.4l.1.1c0-.1-.1-.1-.1 0 0 0-.1.1-.1 0-.2 0 0 0 0-.1-.1-.1 0 .2-.1 0 0 0 0-.2-.2-.2s-.2.1-.1.3v.2l.1-.1v-.2.1c0 .2 0 .3.2.4h-.2c-.2-.2-.1.1-.2.2h-.2c-.1-.1-.5 0-.4-.3-.1.4 0-.2-.2 0 .2.1-.1.2 0 .3l-.2-.1c-.1 0-.3-.1-.4 0-.1 0 .1 0 0 .2-.3.2-.2-.2-.4-.2 0-.2 0 0 0 0h-.1l-.2-.1h-.4c-.2 0 0 0 0 .2-.1 0 0 0 0 0h-.3c-.1-.2-.2-.2-.3 0h-.1l-.2-.4s0-.2-.1 0v.3l-.2.1v-.1a.1.1 0 0 0-.1 0c-.2 0-.3 0-.4-.2 0 .3-.3 0-.4.1-.3-.2-.5.1-.8 0h-.4l-.2.2c-.1.1 0 .1 0 .2 0-.1-.2 0-.2-.2V3H49v-.2c.2 0 .1-.1 0-.2 0 .2 0 0 0 0h-.7l-.5.1c0 .3-.1 0-.2.1 0-.3-.2-.1-.3-.2l-.1.1h.1l-.2.2v-.4.2H47c-.1-.1-.1-.1-.2 0h-.2L46 3V3a.2.2 0 0 1-.3 0l.3-.2c0-.2 0 0-.2-.1 0 0-.1-.2 0 0-.1 0-.2.1-.2 0-.2-.3-.6 0-.9-.1l-.4.1v.1c-.2 0 0-.2-.1-.1-.2 0-.2.2 0 .4v.2l-.2-.2c-.1 0 0 .1 0 0H44c0 .2-.2 0 0 .2h-.1c0-.2-.2 0-.3 0 0-.2-.3 0-.4 0-.2-.2-.4 0-.6 0l-.2-.2c0-.2 0 .1-.2.1s0-.1 0-.1c-.3 0 0 0 0 0H42v-.2l-.1.1v.2h-.4c-.2-.2-.3-.3-.4 0 0-.2-.2.1-.3 0 0-.2-.4 0-.5 0 0 0-.2-.2 0-.2H40v.2l-.3-.1H36.6c-.1-.1-.3 0-.4-.2-.1-.1-.2.2-.3 0-.2-.2-.4.2-.6 0 0 0 0-.3-.1-.2l-.3-.1h-.3l-.3-.4c0 .4-.2.2-.3.1v-.5a.1.1 0 0 0 .2 0c.2 0 .4.3.6.1 0-.2 0 0-.1 0 0-.1-.2 0 0-.2v-.1c-.2 0-.4-.2-.5 0H34v-.1h-.2c0 .2 0 .1 0 0V1s0-.1 0 0V.6c0-.1.2 0 .1-.3h.1c0 .2.1 0 .1 0v.2l.2-.1c0-.1 0-.1.2 0V.2h.3c.1.2 0-.2.2 0h.1c.2-.3 0 .1.2 0v.1h.2v.1h-.1v.2l.7.1c-.1 0 0 0 0 0-.1 0-.3 0-.3-.2h.3c0-.4.3.1.4-.2-.2 0-.2 0-.3-.2h.4c.2 0 0 .3 0 .2.2 0 .1-.1.2-.2h.2l-.1.2h.1c.2.1.3-.1.4-.2a1 1 0 0 1 1.1.3c0 .2 0-.1 0 0 .2.2.3 0 .3-.1 0-.3.2 0 .2 0l.4-.1c0 .3.2-.3.3 0 0-.2.3.3.3 0 0 .2.2 0 .3.2l-.1.1.1.1h.3v.2h.2V.6s.2-.3.3 0h.2-.1v.2h.2-.2V.6c.1.1.3 0 .4 0h.1l.3-.3c0-.1 0 0 0 0h.2l.1.2V.4h.4a.5.5 0 0 0 0 .3V.6s.1.2.2 0a.4.4 0 0 0 .2-.2l.2-.2c.1.2.2 0 .3 0v.2-.1h-.1v.1h-.1v.2h.2c0 .2 0 0 0 0l-.1.1.1.1h.6V.6l-.1-.1c-.2 0 0-.2 0-.3v.2V.1h.1l.5.3c0-.4.1 0 .2 0 .2 0 0 0 0-.1.2-.2.4 0 .6-.1.2 0 .3-.2.5-.1h.2l-.1.1h-.1v.1l.2-.1h.2c.1.2.1-.1.2 0v.2h.1V.2h.2c.1.1 0 0 0 .1v.1h.2v.2H47.6l-.1.1h.2c-.1 0 .2-.3-.1-.2 0 0-.1 0 0 0V.4c0-.2-.3-.2 0-.3v.2a110.3 110.3 0 0 0 .3 0h.1V.2l.1.1c.1 0 .3.1.3-.1H48.6h-.1v.1c0 .1-.3.2-.1.3 0-.3.2-.2.3-.2 0 0 .2-.1 0-.2h.2v.1c.2-.2.3-.1.4 0v.1h-.1v.2-.1h.2s-.1 0 0 .1h-.1l.2.1V.5l.2-.4c.1 0 .1.1 0 .2h.1c0-.3.3 0 .4-.2 0 .2.2-.1.2.1h2.8c.2 0 .3-.2.4 0 .2.4.3 0 .4 0h.5a.4.4 0 0 1 .4.3c.1 0 0 0 0 0V.3h.2v.2-.2c0-.3.3 0 .2-.1h.5c.1 0 0 0 0 .1h.6s.2-.2.3 0c.2-.2 0 .2.1.1h.1c0-.1-.1-.2 0-.2a.6.6 0 0 1 .5.2h.1V.2v.1s0 .2.2.2V.3h.2v.2h-.2l.4.1V.4c-.1.2-.2 0-.2 0 0-.1.1-.3.2-.2l.1.1c.2.1 0 0 .1-.1.2-.2.2.1.3 0v.1h.1c.1-.2.2-.3.3-.1l.4-.1c.1 0 .4-.1.5.2 0-.3.1-.1.2 0l.3-.2h1s.2.2.4 0l.5.2s0-.2.1-.1H64.2c.2-.2.4.2.6 0H66.5v.1l.1.2c.1 0 0-.1 0-.2l.2.1.3-.1h2.7l.2.1.3.1c.3.1.5-.1.8 0l.3-.1s0 .2 0 0a.9.9 0 0 1 .9 0c.1.2.2.1.3 0v.1H75.2c0 .2.1-.1.1 0h.9V.4h.2v1.8ZM39.6.7h.3l-.2-.3c-.2 0 .1.2 0 .3Zm-2.3.7c0 .2.2 0 .3.1 0-.1-.1-.2-.3-.1Zm-1.7.6.1.2.2-.2h-.2s-.1 0 0 0Zm-.5-.3s.1-.2 0-.2c0-.1-.2.2-.4 0 0 .3.3 0 .4.2Zm0 .5V2h-.2l.2.3v-.2Zm.3-.2.1-.1h-.4.3Zm1 .6h-.1v.1h-.1c-.2-.1-.3-.3-.5-.2h-.3H35.7s.1 0 0 .1l.6.2s0-.1 0 0h.1v-.2Zm1.2.1h-.3v.1l.1.1c-.1-.3.1-.1.2-.2Zm0-.7.1-.2h-.1c.2 0 .3 0 .1.2h.1l.1-.1s0-.3-.2-.2l-.2-.1s-.2 0-.1.1c-.2-.2-.5.1-.7 0h-.2v.1l.1.1h-.4l.2.1h.1s-.2 0 0 .2l-.2.1H36.6v.1h-.2l.1.1h.2c.1-.3-.2-.3-.2-.4.3.1.2-.2.4-.3h.4V2c-.2-.1-.2.3-.4.2l.2.1c-.1 0-.2 0 0 .1V2.6v-.4s0-.2.1 0h.3V2c0-.2.2 0 .1-.1Zm.5.5H37.8c0-.2.2-.3 0-.4 0 0 0 .2-.1.1v.2s0-.2 0 0l.1.2.2-.1Zm.4-.1-.2.2c0-.3-.1 0-.2 0l.1.1c0 .1.2.2 0 .3.2 0 0-.1.1-.2l.1-.1s.3 0 .3-.2l-.2-.1Zm.5.1s0 .4-.2.1V3l.2-.4Zm.7-.3c0-.1.2 0 .2 0 0-.2.2.3.2-.1v-.2H40v-.2l-.2-.2h-.3c-.1.1-.3-.1-.4.1h-.3l.1-.2h-.2v.2c0 .1 0 0 0 0h-.1v-.1c-.2 0-.4.3-.6.1v.3c0-.2 0 0 .1 0l.2-.1-.1.1V2h.1v-.2c0 .2.2.2.2.3v.1h-.1l.4.1c0-.2.2-.1.2-.3h-.1.7s-.2 0 0 0l.1.2Zm1.3.6v-.2c0-.1-.1 0-.2 0 0-.3-.3.1-.5-.1H40c0-.2-.2 0-.2-.3V2.6c-.1 0-.2.1 0 .2h.1l.2.2c0-.1.2 0 .2 0a.5.5 0 0 1 .5-.3s0 .2-.1.1h-.1.3v.1Zm0-1.1H41c-.1 0 0 0 0 0 .1 0 0 .2 0 .2.2 0 0-.2.2-.2Zm1-.2v.1c-.1 0-.4 0-.3.3 0 0-.1-.2-.1 0a.2.2 0 0 0 .2 0c0 .3-.2 0-.2.2 0-.3-.2-.3-.4-.4 0 .2.2.3.3.4v.4h-.2.2c0 .1.2.1.2 0 0 .2.2.2.1.4.2 0 0-.2.1-.3 0 0-.1-.2-.2 0 0-.2-.2-.5.1-.5h.2l-.2-.1v-.2h.1l.1-.3Zm.4.8.4-.1c.1 0 .3-.2.5 0l.2-.2c-.2 0-.3-.1-.4 0l-.2-.2-.2.2v-.1s0-.1 0 0l-.2.1h-.1v-.1s0 .2.1 0v-.3h-.1c-.2.2 0 .4 0 .7Zm.8.7c0-.1 0-.3-.2-.3l-.2-.2v.2l-.2-.2v-.1l-.1.3c0 .1.2.2.3 0 0 .1.1.2.3.1 0 .3-.1.1-.2.2h-.1.4Zm.7-.3a.3.3 0 0 1-.4 0c-.2-.2-.2 0-.3 0v.1h.2l.2.2v.1c.1 0 0-.1 0-.2.2 0 .3 0 .3-.2Zm1.2-.8h-.2v-.2h.2s0-.1-.1 0c-.1 0-.3-.2-.4 0l-.2-.2.1-.1h-.1c0 .1-.2.2 0 .3-.1 0 .1.1 0 .1h-.2L44 2h.3a.6.6 0 0 1 .7 0L45 2Zm.2 0v-.1l-.2.1.2.2v-.3Zm.5-1.3-.2-.2v.1l-.3-.1v.1c.2 0 .2 0 .2.2h.2V.6Zm.4 1.3c-.1-.2-.2 0-.2 0 0 .1 0 0-.1 0 0 .2.1 0 .2 0h.1Zm1.7-.1h.2l-.4-.2v.1h-.3c0 .4-.2.2-.2.1H47v.1c.2 0 .3.2.4.1a.1.1 0 0 1 .2 0c0 .5.2 0 .3 0 0-.1 0 0 0 0 0 .1-.1 0-.2 0l-.2-.1.3-.2Zm.5.2h-.1s-.3 0 0-.1a.2.2 0 0 0 0-.2h-.2a.2.2 0 0 0 0 .2c0 .2 0 .2.2.1Zm.9-1.2h-.4V1l.4-.2Zm.4 1.2-.4-.3-.2.3h.4V2.4l.2-.3Zm.6 0c-.1-.3-.2.2-.3 0l-.1.4s0-.2.1 0l.2-.3V2h.1Zm.5-.2h-.3l.2.2v-.3h.1Zm1.5.3v-.3c-.2-.2-.3 0-.5 0l.1.1s-.1 0 0 .1l.2-.1c0 .2.2 0 .1.2Zm.5-1.4h.3c0-.2-.2 0-.3-.1v.1Zm0 .8s.1-.1 0 0h-.2l-.2.3.3.1h.1l-.1-.1h-.1l.1-.2c0 .2.1 0 .1 0Zm.6-.1c-.2-.2-.2 0-.3 0l-.2.2a.3.3 0 0 0 .4-.2Zm.7 1-.4-.2c.1 0 0 .2 0 .2h.3Zm.3-.1V2c0-.2-.2 0-.3-.2V2c-.1-.1-.2 0-.2 0v.2c.2 0 0 0 0 0 0-.2.1-.2.2-.2l.1.1c0 .2.2.1.2.2Zm1.4-.5c-.4 0-.4 0-.3-.1v-.2c-.3 0 0 .3-.2.4l.5-.1Zm.3-1h.3l-.2-.2H56c.1-.2 0-.1 0-.2h-.2c-.2.2.1.2.2.3h.1Zm.3 1c-.1 0-.2-.2-.4 0l.4.2v-.2Zm.1-1.1.1-.1-.2-.1s.1 0 0 .1h.1Zm.3 1.7-.3-.1c0 .4.2 0 .3.1Zm.1.2h-.2c0-.1 0 0 0 0l.1.2.1-.2Zm.3-2.2c-.2 0-.1.1-.1.2v.2l.1-.1V.4Zm2.2 0h-.2l-.1.2h.1s.1 0 0 .1c.2.2.2 0 .2 0V.3Zm.9.9s0-.1-.1 0H60v.1l.3-.1Zm.2.5-.3-.2.2.3v-.1ZM62 2c-.2 0 0-.2 0-.2-.3 0 0 .2 0 .4V2Zm.2-.3H62v.1h.3v-.2Zm.3-.9H62.2l.2.2V.8h.1Zm.5 0v.4s0 .1.1 0L63 .9Zm.7.6-.2.3h.1l.3-.2-.2-.1Zm2.1.1s0-.1-.1 0h-.2s.1.1.2 0h.1Zm0-.2c0 .3.2.2.3.3h.1l-.3-.3Zm0 .7.2.2V2l-.1-.1Zm.5.4-.4-.2v.2h.4Zm1.8-.7-.2-.2h-.2c.1.1.1.3.3.2Zm1 .5c0-.1-.1 0-.2 0V2.4L69 2Zm5.5.2H74.3l.2.2v-.2h.1ZM36.3.2ZM48.3 2ZM37 2.2ZM37.3 1.3Z"/><path d="M44.5 3h-.1.1v-.1.1h-.3c.2 0 .3.2.3.3l.3.1V3.1h-.3ZM34.3 2.6h-.1c0-.1-.3 0-.3-.2v.2h.4ZM45 3.2c0-.2.1-.2 0 0-.2 0 0-.3-.1-.2v.3c0 .2.2 0 .4 0V3c-.1 0-.2-.2-.2 0ZM35.8.5h.5l-.6-.3v.1l.1.2Z"/><path d="M45.6 3h-.2c0 .2-.2-.1-.2.1.2.3.3.2.4 0V3ZM41.5.2c-.1-.2-.3.2-.4 0 0 .1 0 .2.2.2 0 0 .2 0 .2-.2ZM47.2 3.2l.1-.2h-.2v-.2l-.2.2.3.2ZM52.4 3v-.2s-.2 0-.2.2.2-.1.3 0c0 0 .1 0 0 0ZM41.9.4s-.1-.1-.1 0c-.1 0 0 0 0 0v.1c-.1.1 0 .2 0 .2V.5s-.1-.2 0-.2ZM41.8.6ZM48.4 2.9V3s0 .2.1.1v-.3c0 .1 0 .2-.1 0ZM74.5 2.6c0 .2.2.2.3.3 0-.3-.3 0-.3-.3ZM60.7 2.9l-.2.2h.1l.2-.1v-.1ZM56.2 3V3h.2V3h-.2ZM63.6 2.9V3l.2-.1h-.2ZM68.7 2.5l-.2.2c0 .2.1-.2.2 0v-.2ZM51.3 3l-.1.2h.1c0-.2.1-.1.1 0v-.3ZM36 .3h.3V.1S36 0 36 .3ZM36.3.2ZM48.3 2.8s-.1 0 0 0v.3-.3ZM61.6 2.5h-.1v.3h.1v-.2ZM59.6 3h.3-.3ZM40 2.1l-.1-.2c0-.1-.1-.3-.2 0l.1.2h.2ZM39 1.7l.2.1h.1l-.2-.1ZM76.5.7ZM119.2 2.3v.3l-.2-.2V3c-.2-.4 0 .2-.2.1l-.4-.1c0-.1-.1-.3-.3-.2v-.1c0-.2 0 0 0 0h-.4c-.1.2-.3.1-.4.1-.2 0-.2-.1-.3-.2l-.2.1-.1.3c-.1 0-.2.1-.4-.1-.1-.2-.3-.2-.5 0v-.2c-.2 0-.3-.1-.2-.3v-.1c-.3 0-.2.1-.2.2 0 .4-.3 0-.3.3h-.5s.1.2 0 .2l-.4-.1h.1c0-.4-.2-.3-.3-.4v-.2l-.2.3c.1 0 .1 0 0 .1h-.3c0-.1 0 0-.1 0l-.3-.1h-.1c-.1.5-.3.1-.4 0a.3.3 0 0 0-.4 0c-.1.1-.1-.2-.2 0h-.1s0-.1 0 0c0 0-.2 0-.1.2 0 0-.2.1-.1 0l-.4-.2-.5.2V2.4c-.1.2-.2-.2-.2 0l-.1.2h.1s0-.1 0 0c.1.1 0 .1 0 .1h-.4c-.1-.2-.4 0-.5-.2v.1s.2 0 .1.2c0 0-.2-.2-.3 0-.1 0-.3-.4-.5-.2l-.3-.1h-.2l-.3.2v-.2c-.1.1-.2 0-.2 0-.2.2-.4 0-.6.2h-.6c-.2 0 0 0 0 0a3 3 0 0 0-.6.1v-.1l-.1-.2h.1c.1-.3.3 0 .4-.2v.1h.2v.1c.1 0 0-.3.2-.3h-.5c-.2 0-.5-.1-.5.3-.1-.1 0 .1 0 .2l-.3-.1c0-.1-.1 0-.1 0 0 .3-.3 0-.4.2 0 0-.1.1-.1 0 0-.2-.2 0-.3 0-.1 0-.2 0-.3.2l-.2-.2c.1 0 .1 0 0-.1v-.3l-.1-.2v.1c0 .2-.2.2-.2.3l-.1.1-.2-.1v.1h-.2.1v.1s0 .2-.1.1l-.1-.3h-.1v.1l-.1.1V3h-.2c0-.4-.1 0-.3 0v-.1h.2c0-.2-.2-.2-.2-.1l-.4-.2h-.1v.1l-.2.1-.2-.1h-.1v.2V2.4l-.1.1c-.2 0-.3.2-.4 0-.2 0 0 .2-.1.1V3c.1 0 0 0 0 .1a.1.1 0 0 1-.1 0v-.4l-.1.3h-.1l-.1-.1h.1V2.5l-.2.2-.1-.1-.1-.1v.2h-.3l-.1-.1s-.1.1 0 .2H99.7c0 .5-.4 0-.5.3v-.2l.1-.2c0 .2-.4-.1-.4.3a.1.1 0 0 1 0 .1h-.3l.2-.1v-.4.2c0-.1-.1-.2-.2 0-.2.1-.1 0-.1-.1v-.3l.2.2v-.4h.1v.1c0-.1-.1-.1-.1 0 0 0 0 .1 0 0-.2 0 0 0-.1-.1 0-.1 0 .2-.1 0 0 0 0-.2-.2-.2 0 0-.2.1-.1.3v.2l.1-.1v-.2l.1.1.1.4h-.1c-.3-.2-.2.1-.2.2h-.3c0-.1-.4 0-.4-.3 0 .4 0-.2-.1 0 .1.1-.2.2 0 .3l-.3-.1s-.2-.1-.4 0c0 0 .2 0 0 .2s-.2-.2-.3-.2c0-.2-.1 0-.1 0l-.2-.1h-.5c-.1 0 .1 0 0 .2h-.3c0-.2-.2-.2-.2 0H95l-.2-.4s0-.2-.1 0v.3l-.2.1v-.1h-.1c-.2 0-.3 0-.4-.2-.1.3-.3 0-.4.1-.3-.2-.6.1-.9 0h-.3L92 3v.2c0-.1-.2 0-.1-.2V3h-.2l.1-.2c.2 0 .1-.1 0-.2 0 .2 0 0-.1 0h-.6l-.5.1c0 .3-.2 0-.2.1 0-.3-.3-.1-.4-.2v.1L90 3v-.1l-.1-.3v.2h-.5l-.6.2V3a.2.2 0 0 1-.3 0h.1l.3-.2c0-.2-.1 0-.2-.1 0 0-.2-.2-.1 0 0 0-.1.1-.1 0-.3-.3-.6 0-1-.1l-.3.1c0 .2 0 .1-.1.1-.2 0 .1-.2 0-.1-.2 0-.2.2 0 .4v.1H87v.1l-.2-.2c-.1 0 0 .1 0 0h-.1c0 .2-.2 0 0 .2h-.1c0-.2-.2 0-.3 0 0-.2-.3 0-.4 0-.2-.2-.4 0-.5 0L85 3c0-.2 0 .1-.2.1s0-.1 0-.1c-.3 0 0 0 0 0h-.1l-.1-.2-.1.1v.2h-.4c-.1-.2-.3-.3-.4 0 0-.2-.2.1-.3 0 0-.2-.3 0-.5 0 0 0-.2-.2 0-.2h-.2v.2l-.3-.1H79.3c-.1-.1-.3 0-.4-.2-.1-.1-.2.2-.3 0-.2-.2-.4.2-.6 0 0 0 0-.3-.1-.2l-.3-.1h-.3l-.3-.4c0 .4-.2.2-.3.1v-.5a.1.1 0 0 0 .2 0c.2 0 .4.3.6.1h.2c0-.2 0 0-.1-.1 0 0-.2 0 0-.1v-.2l-.5.1H77l-.1-.1c0 .2-.1.1-.1 0V1s0-.1 0 0V.6c0-.1.2 0 .1-.3h.1c0 .2.1 0 .1 0v.2l.2-.1c0-.1 0-.1.2 0V.2h.3c.1.2 0-.2.2 0h.1c.2-.3 0 .1.2 0v.1h.2v.1h-.1v.2l.7.1c-.1 0 0 0 0 0-.1 0-.3 0-.3-.2h.3c0-.4.3.1.4-.2-.2 0-.2 0-.3-.2h.4c.1 0 0 .3 0 .2.2 0 .1-.1.2-.2h.2l-.1.2h.1c.2.1.3-.1.4-.2a1 1 0 0 1 1 .3c.2.2 0-.1.2 0 0 .2.2 0 .2-.1 0-.3.2 0 .2 0l.4-.1c0 .3.2-.3.3 0 0-.2.3.3.3 0 0 .2.2 0 .3.2 0 0-.1 0 0 .1v.1h.3v.2h.2V.6s.2-.3.3 0h.2l-.1.2h.2-.1V.6h.4l.3-.3H85.3v.2-.2h.4V.7.6c.1 0 .1.2.3 0a.4.4 0 0 0 .1-.2l.3-.2c.1.2.2 0 .3 0v.2-.1h-.2l.1.1h-.2v.2h.2c0 .2 0 0 0 0v.2h.6V.5c-.2 0 0-.2-.2-.3h.2v.2V.1l.5.3c0-.4.2 0 .3 0 .1 0 0 0 0-.1.2-.2.4 0 .6-.1.1 0 .3-.2.5-.1h.1v.1H89v.1l.3-.1h.1c.2.2.2-.1.3 0l-.1.2h.1l.1-.2h.1c.1.1 0 0 0 .1v.1h.2l.1.2h.2v.1h.1s.2-.3 0-.2c0 0-.2 0 0 0V.4c0-.2-.3-.2-.1-.3l.1.2a.7.7 0 0 0 .1-.2l.1.2V.2l.2.1c.1 0 .2.1.3-.1h.2l-.1.1c0 .1-.2.2 0 .3 0-.3.2-.2.3-.2 0 0 .2-.1 0-.2h.2v.1c.2-.2.3-.1.4 0v.1H92v.2-.1h.2s-.1 0 0 .1h-.1l.1.1V.5l.3-.4c.1 0 .1.1 0 .2h.1c0-.3.3 0 .4-.2 0 .2.2-.1.2.1H96c.2 0 .3-.2.4 0 .2.4.3 0 .4 0h.5a.4.4 0 0 1 .4.3c.1 0 0 0 0 0V.3h.2v.2l.1-.2c0-.3.2 0 .2-.1h.4c.1 0 0 0 0 .1h.6c.1 0 .2-.2.3 0 .2-.2 0 .2.2.1 0-.1-.1-.2 0-.2a.6.6 0 0 1 .6.2V.2v.1c.1 0 0 .2.2.2V.3h.2v.2h-.2l.4.1V.4c-.1.2-.2 0-.2 0l.2-.2.1.1c.2.1 0 0 .1-.1.2-.2.2.1.3 0v.1h.2c0-.2.1-.3.3-.1l.3-.1c.2 0 .4-.1.5.2 0-.3.2-.1.2 0l.4-.2h.8c.2 0 .3.2.5 0h.1l.4.2c.1 0 0-.2.1-.1h1.9c.2-.2.4.2.5 0h1.8V.7c.1 0 0-.1 0-.2l.2.1.3-.1h2.3c.1.1.3 0 .4 0l.2.1.4.1h.7l.3-.1s0 .2 0 0a.9.9 0 0 1 1 0c0 .2.1.1.2 0v.1H118.1c0 .2.1-.1.1 0h1V.4h.2l-.2 1.8ZM82.3.7H82.6l-.2-.3c-.2 0 .1.2 0 .3Zm-2.4.7h.1l.3.1c0-.1-.1-.2-.3-.1Zm-1.6.6v.2l.2-.2-.1-.1-.1.1Zm-.5-.3v-.2c0-.2-.2.2-.4 0 0 .3.3 0 .4.2Zm0 .4h-.2l.2.3v-.2ZM78 2v-.2h-.3V2h.3Zm1 .6h-.2.1-.1c-.2 0-.3-.2-.5-.1H78 78.4s.1 0 0 0l.6.3s0-.2 0 0h.1v-.2Zm1.2 0H80v.1l.1.2c-.1-.3 0-.2.2-.2Zm0-.7v-.1c.2-.1.3 0 .1.1V2l.2-.2s0-.2-.2-.2h-.2s-.2 0-.1.1c-.3-.2-.5 0-.7 0h-.2V2H79h.2c0 .1 0 .1 0 0h.1V2s-.2 0 0 .1c-.2 0-.2.1-.2.2H79.3l-.3.1s.1.1.2 0h.2c.1-.2-.2-.2-.2-.3.3.1.2-.2.4-.3h.4V2c-.2-.1-.2.2-.4.1v.1h.1v.5h.2l-.1-.4V2h.4V2c-.1-.2.2 0 0-.1h.1Zm.5.5H80.5v-.3l-.1.1v.2s0-.2 0 0l.1.1v.1l.2-.1Zm.4 0h-.1l-.1.2c0-.3-.2 0-.2 0l.1.1s.2.1 0 .2c.2 0 0 0 .1-.1 0 0 0-.2.1-.1l.3-.2-.2-.1Zm.5.1s0 .4-.2 0V3l.2-.3Zm.7-.3.2-.1c0-.2.2.4.2 0v-.2l-.1-.1-.1-.1v-.2h-.4c-.1.1-.3-.1-.4 0h-.3.1-.2l-.1.2v-.2c-.2 0-.4.3-.6.2v-.1.3c0-.2 0 0 .1 0l.2-.1-.1.2h.1v-.2c0 .2.2.2.2.3v.1h-.1l.4.1c0-.2.2-.1.2-.3h-.1.7s-.2 0 0 0l.1.2Zm1.2.6v-.2c0-.2 0 0 0 0-.2-.3-.5 0-.6-.1h-.2c0-.2-.3 0-.2-.3v.1l-.1.2s-.1 0 0 .1l.2.1.1.2c.2-.2.2 0 .2 0a.5.5 0 0 1 .5-.3s0 .2 0 0h-.1v.2h.2Zm.2-1.1h-.3.1V2c.2 0 0-.2.2-.2Zm.9-.2c-.2.2-.4 0-.3.3 0 0-.2-.2-.1 0a.2.2 0 0 0 .2.1c0 .2-.2 0-.2.2 0-.3-.2-.4-.5-.4l.3.4.2.3-.1.1s-.2-.1-.2 0h.4c0 .2.2.2.1.3.1 0 0-.1 0-.2.1 0 .2 0 0 0 0 0 0-.2-.1 0 0-.2-.2-.5.1-.5h.1l-.1-.2h.1v-.4h.1Zm.4.7h.4c.1 0 .3-.2.5-.1l.1-.1-.4-.1v-.1h-.1l-.2.1v-.1h-.1l-.2.2V2s0 .1 0 0v-.3c-.2.2 0 .4 0 .7Zm.8.8c0-.2 0-.3-.2-.4l-.2-.2v.2l-.2-.1v-.1c-.1 0 0 .3-.2.3.2.1.3.2.4 0 0 .1.1.2.3 0v.1c0 .3-.2 0-.2.2h-.1.4Zm.7-.3v-.1a.3.3 0 0 1-.4 0c-.2-.2-.2 0-.3 0v.2h.1c.2 0 .3 0 .3.2v.1c.1 0 0-.2 0-.2.2 0 .3 0 .3-.2Zm1.2-.8h-.2v-.1l.1-.1s0-.1 0 0c-.1 0-.3-.2-.4 0l-.1-.2v-.1h-.1c0 .1-.2.2 0 .3-.1 0 .1.1 0 .1H87l-.2.2c.3.1.3 0 .4 0a.6.6 0 0 1 .6 0l.1-.1Zm.2 0v-.1l-.2.1.2.2v-.3Zm.4-1.3-.1-.2v.1L88 .4c.2 0 .2.2.2.2l.2.2V.5Zm.5 1.3c-.2-.2-.2 0-.2 0 0 .1-.1 0-.1 0h-.1c.1.2.2 0 .3 0h.1Zm1.6-.1H90.8l-.4-.2v.1H90s-.1 0 0 0c0 .4-.2.2-.2.1h-.1v.1c.2 0 .3.2.4.1a.1.1 0 0 1 .1 0c.1.5.3 0 .4 0-.1.1-.1 0-.2 0l-.2-.1.3-.2Zm.5.2s-.3 0 0-.1a.2.2 0 0 0 0-.2h-.2a.2.2 0 0 0 0 .2c0 .2 0 .2.2.1Zm1-1.2h-.4V1l.4-.2Zm.4 1.2-.5-.3V2H92.1V2.4l.2-.3Zm.6 0c-.2-.3-.2.2-.4 0v.4s0-.2 0 0L93 2V2Zm.5-.2H93l.3.2v-.3ZM95 2v-.3c-.2-.2-.3 0-.5 0l.1.1s-.1 0 0 .1l.2-.1c-.1.2.1 0 .1.2Zm.5-1.4h.3c0-.2-.2 0-.3-.1v.1Zm0 .8s.1-.1 0 0h-.2l-.2.3.3.1h.1l-.1-.1h-.1l.1-.2c0 .2.1 0 .1 0Zm.6-.1c-.2-.2-.2 0-.3 0l-.2.2a.3.3 0 0 0 .4-.2Zm.6 1-.3-.2c.1 0 0 .2 0 .2h.3Zm.4-.1V2c0-.2-.2 0-.4-.2V2c0-.1-.1 0-.1 0v.2c.1 0 0 0 0 0 0-.2.1-.2.2-.2l.1.1c0 .2.2.1.2.2Zm1.4-.5c-.4 0-.4 0-.3-.1v-.2c-.3 0 0 .3-.2.4l.5-.1Zm.3-1h.3l-.2-.2h-.2c.1-.2 0-.1-.1-.2h-.1c-.2.2 0 .2.1.3h.2Zm.3 1c-.1 0-.2-.2-.4 0l.4.2v-.2Zm.1-1.1.1-.1-.2-.1s.1 0 0 .1h.1Zm.3 1.7-.3-.1c0 .4.2 0 .3.1Zm0 .2c-.1-.1-.1 0-.1 0l.1.2v-.2Zm.4-2.2c-.2 0-.1.1-.1.2v.2l.1-.1c0-.1-.2-.2 0-.3Zm2.2 0h-.2l-.1.2c.1 0 .2 0 .1.1.1.2.1 0 .2 0V.3Zm.9.9s-.1-.1-.1 0h-.2v.1l.3-.1Zm.1.5-.2-.2h-.1l.3.3v-.1Zm1.6.2c-.2 0 0-.2 0-.2-.3 0-.1.2-.1.4l.1-.1V2Zm.2-.3h-.4v.1h.3v-.2Zm.3-.9h-.3l.2.2V.8Zm.5 0v.4s0 .1 0 0V.9Zm.7.6-.2.3c.2 0 .3-.1.3-.2l-.1-.1Zm2 .1s0-.1 0 0h-.2s.1.1.2 0Zm.1-.2c0 .3.2.2.3.3 0-.2-.1-.2-.3-.3Zm0 .7.2.2V2l-.1-.1h-.1Zm.5.4-.4-.2v.2h.4Zm1.7-.7-.1-.2h-.2c0 .1 0 .3.3.2Zm1 .5c0-.1 0 0-.1 0v.1h-.1l.2.2V2Zm5.6.2h-.3l.2.2v-.2ZM79 .2ZM91 2ZM79.7 2.2ZM80 1.3Z"/><path d="M87.2 3h-.1v-.1.1H87c.2 0 .2.2.3.3l.3.1V3.1h-.3ZM77 2.6h-.1c-.1-.1-.3 0-.3-.2v.2H76.8Z"/><path d="M87.8 3.2h-.1c0-.2 0-.2 0 0-.2 0 0-.3-.2-.2v.3c.1.2.3 0 .4 0V3s-.2-.2-.1 0ZM78.5.5h.4l-.5-.3V.5ZM88.3 3H88c0 .2-.1-.1 0 .1 0 .3.2.2.3 0V3ZM84.1.2c0-.2-.2.2-.3 0h-.1l.3.2s.2 0 .1-.2ZM89.8 3.2 90 3h-.2v-.2l-.2.2.2.2ZM95.1 3v-.2c-.1 0-.2 0-.2.2s.2-.1.2 0c0 0 .2 0 0 0ZM84.5.4s0-.1 0 0h-.1V.7l.1-.1s-.1-.2 0-.2ZM84.5.6ZM91 2.9V3c.1 0 .1.2.2.1v-.3c0 .1 0 .2-.1 0ZM117.1 2.6c.1.2.2.2.4.3 0-.3-.3 0-.4-.3ZM103.4 2.9l-.2.2h.1l.2-.1v-.1ZM99 3V3h.1V3h-.2ZM106.3 2.9h-.1l.2.1V3h-.1ZM111.4 2.5l-.3.2c.1.2.2-.2.3 0v-.2ZM94 3l-.1.2h.1c0-.3 0-.1.1 0v-.3ZM78.7.3h.3V.1s-.3-.1-.3.1ZM79 .2ZM91 2.8s-.1 0 0 0v.3-.3ZM104.2 2.5v.3c.1 0 0-.1 0-.2ZM102.2 3h.4-.3ZM82.7 2.1l-.1-.2c0-.1-.1-.3-.2 0l.1.2h.2ZM81.7 1.7l.1.1h.2l-.2-.1ZM123.8 1.8c0 .1 0 .3-.2.2l-.2-.1h-.1c.2.3-.4.2-.1.4-.2 0-.3.3-.5.3 0-.2-.1 0-.1-.1s.2-.1 0-.2h.3l-.3-.1v.1h-.4a1 1 0 0 0-.6 0s0 .1-.1 0c0 0-.2 0 0 .1v.1h.1a1 1 0 0 0-.9.2c0-.2 0-.2-.1-.1v.2l.3-.1-.2.2h-.2l-.5-.2V3c0 .1-.1 0-.1 0-.1.1-.1.1-.2 0v-.1c-.2.1-.3-.1-.4 0h-.1v-.4l.3.1h.3l-.5-.2h-.1V.7h.2l-.1-.1h.1c0 .3.3 0 .4.1l.2.1h.1l.1-.1h.2a6.4 6.4 0 0 1 1.1 0c.3-.1.6 0 .8 0l.1-.1h.1s.3.2.4 0c0 0 .1.1.1 0h.1c.2 0 .2.2.2.4l.2.1-.1.1h-.2l.1.2h.1-.1c-.2 0 0 .3 0 .4h.5Zm-4 .3-.2-.1h-.1l.3.2V2Zm.1.4h-.3v.1c0 .2 0 .1.1 0 0 0 0 .2.1.1l.1-.2Zm.6-.2v-.1H120.1s.1 0 0-.1l-.1-.1v.2c-.2 0-.3.1-.1.3h.1v-.1l.4-.1Zm.3-.2a1 1 0 0 0-.4-.1c-.2 0 0 0 0 0 0 .2.2 0 .2.2h.2ZM123.9.8l.2.4V1l-.2-.2ZM33.4 52.6v.5l-.1-.1c-.2 0-.4.2-.6.1h-.1c-.1.1 0 0-.1 0-.1-.2 0-.2.1-.3l-.1-.2v.1c-.3 0-.1.4-.3.4a.1.1 0 0 0-.1 0c0 .3-.1.3-.2.3h.1v.1l-1-.1h-.3a.2.2 0 0 1-.2 0v-.1H30.8v-.1h-.5l.1-.1c.2 0 0-.1 0-.1-.2 0 .3-.7-.3-.4l-.3-.2h.2v-.1h-.2v-.8l.1-.1a.2.2 0 0 0 .1 0 .2.2 0 0 0 .2 0h.5l.1-.1c.2.2.3 0 .5 0v.1c-.1 0 0 0 0 0s0-.2.1 0h.3l-.1-.1h.1l.2-.1c.2-.2.3 0 .4 0h.2c.2 0 0 0 0 0V51H33.1V51v.5h.2V52.4s0-.1 0 0v-.1h-.1l.2.4Zm-2.2-.1h-.4l.2.1.2-.1Zm.6-.3-.5.2c.2-.1.2.2.3 0l.2-.2Zm1.3.2c0-.1-.1 0-.2 0-.1-.1 0 0 0 0l.1.1Z"/><path d="M33.3 53.2H33l.1.2.1-.1c.1 0 0 0 0 .1h.2v-.3ZM33 53.3c-.3 0-.4 0-.3.2 0-.1 0-.2.2-.2ZM32.7 53.6ZM32.4 53.3l.2.2c0-.2-.1-.2-.2-.2ZM33.4 51.4v-.1ZM77 53v.2l-.2-.2c-.1 0 0 0 0 0v.5c-.2-.4-.1.2-.2 0-.1 0-.3.1-.4 0 0-.2-.1-.4-.3-.2v-.1c0-.2 0 0-.1 0-.1-.2-.2 0-.3 0-.2.2-.3 0-.5 0l-.3-.1s-.2 0-.1.1l-.2.3-.3-.1c-.2-.2-.4-.2-.5 0l-.2-.2s-.2-.2 0-.4h-.1c-.3-.1-.2.1-.2.2.1.4-.3 0-.3.3H72.5l.1-.1h-.2c-.2 0 0 .3-.2.2H72v-.1c0-.3-.2-.2-.3-.4v-.1l-.2.2c.1 0 .1.1 0 .2h-.3c0-.1 0 0-.1 0l-.3-.1h-.1c-.1.5-.3.1-.5 0a.4.4 0 0 0-.3 0c-.1.1-.2-.2-.3 0 0 0 0-.1 0 0 0 0-.2 0-.2.2 0 0-.1 0 0-.1a1 1 0 0 0-.4-.1c-.2 0-.4 0-.5.2h-.1v-.4.1c0 .2-.1-.2-.2 0v.2s0-.2.1 0h-.5l-.5-.1c.1.1.3.1.2.3l-.1-.1H67c-.1 0-.3-.3-.5-.2h-.3c0-.1-.2 0-.2 0l-.3.2V53c-.1.1-.2 0-.2 0-.2.2-.4 0-.6.2h-.7c-.2 0 .1-.1 0 0h-.5v.1-.1c0-.1 0-.2-.2-.2V53h.2c.1-.3.3 0 .4-.1v.1h.1c.2 0 0-.3.3-.3a2 2 0 0 0-.6 0c-.2 0-.4 0-.4.3-.2 0 0 .2-.2.2h-.2c0-.1 0 0 0 0-.1.2-.4 0-.5.2h-.1c0-.2-.2-.1-.3-.1l-.3.3-.2-.3c.1 0 .1 0 0 0 0-.1 0 0 0 0l-.1-.3v-.2.1c0 .2-.2.2-.2.3 0 .1 0 0-.1 0H61l-.1.1h.2c-.2 0-.1.3-.2.2l-.2-.3v.1l-.2.1v.1h-.1c0-.4-.2 0-.3 0l-.1-.1h.2c0-.2-.1-.2-.2-.2-.2.2-.2 0-.4 0l-.2.1c-.1 0-.1 0 0 0 0 .1 0 .1-.1 0l-.2-.1H59V53.4v-.1L59 53v.1c-.2 0-.3.3-.4.1-.2-.1-.1.1-.2 0v.2c.2 0 .1.1.1.2l-.2-.1v-.3.2s-.1.1-.1 0l-.1-.1h.1V53v.1l-.2.1h-.2V53 53.5l-.3-.1h-.2v.1H57c0 .6-.4.1-.5.3v-.1l.2-.2c-.1.2-.5-.1-.4.3l-.3.1v-.1l.2-.3v-.2l-.1.3c0-.1 0-.2-.2 0l-.1-.2v-.2l.2.1h.1v-.3.1-.1l-.2.2v-.3s0 .2-.1 0l-.1-.1c-.2 0-.3 0-.2.3v.1h.2V53l-.1-.1.1.1.1.3c0 .2 0 0-.1 0-.3-.1-.2.2-.2.3h-.3c0-.2-.4 0-.4-.4 0 .4 0 0-.1 0v.1c.1.1-.2.2 0 .2h-.3l-.4-.1v.3c-.2.2-.2-.3-.3-.2 0-.2-.1 0-.1-.1h-.7c-.1 0 0 0 0 .1v.1h-.3c-.1-.2-.2-.2-.3 0h-.1v-.1l-.2-.3s0-.2 0 0v.3h-.3c-.2 0-.4 0-.5-.2 0 .3-.2 0-.4.1-.3-.1-.6.1-.8 0h-.4l-.3.3s-.2.1-.1 0v-.1.1H49l.1-.2c.2 0 .1 0 0-.1 0 .1 0 0-.1 0h-1.1c0 .3-.2 0-.2.2 0-.4-.3-.2-.4-.2v.1l-.1.1v-.1l-.2-.3v.3c-.1-.2 0-.2-.2 0h-.2l-.6.1v.2a.2.2 0 0 1-.3 0v-.1l.3-.2c0-.2 0 0-.2 0 0 0-.1-.2 0 0h-.2c-.2-.4-.6 0-1-.2l-.3.2c0 .1 0 0-.1 0-.2 0 .1-.1 0 0-.2 0-.2.1 0 .3v.1H44v.1l-.2-.1c-.1-.2 0 0 0 0h-.1c0 .1-.2 0 0 .1h-.1c0-.2-.2 0-.3 0 0-.1-.3 0-.4 0h-.6l-.2-.2c0-.2 0 .1-.2.2-.2 0 0-.2 0-.2-.3.1 0 0 0 0h-.2v-.1h-.1v.3c-.1 0-.4 0-.5-.2H41c-.1-.1-.2.3-.4 0l-.5.1s-.2-.2 0-.1v-.1h-.2v.2h-.2l-.2-.1H37.2l-.9-.1-.5-.1c0-.1-.2.2-.2 0-.2-.2-.4.2-.6 0 0-.1-.1-.3-.2-.2l-.3-.1h-.3c0-.2-.2-.3-.3-.4 0 .4-.2.2-.3.1v-.5a.1.1 0 0 0 .2 0c.2 0 .4.3.6 0v.1h.3c0-.2-.1-.1-.2-.1 0 0-.1 0 0-.1v-.2c-.2 0-.4-.1-.5.1h-.1V52h-.1c0 .3-.1.2-.1.1v-.6s0-.1 0 0v-.2c0-.2.2 0 .2-.3V51c0 .2.1 0 .2.1v.2-.1c0-.2 0-.2.3-.1l.1-.1h.3c0 .1 0-.2.1 0h.2c.2-.3 0 .1.1 0 0 .2 0 .2.1.1h.1v.1h-.1l.1.2.6.1s.1 0 0 0-.2 0-.2-.2l.2-.1c.1-.3.4.2.5-.1-.2 0-.2 0-.3-.2h.3c.2 0 0 .2.1.2l.2-.2h.2l-.1.2h.1c.2.1.3-.1.4-.2a1 1 0 0 1 1.1.3c.1.2 0-.1 0 0 .2.2.3 0 .3-.1 0-.3.2 0 .2 0l.4-.1c.1.3.3-.3.3 0 .1-.2.3.3.4 0 0 .2.2 0 .2.2v.2c.2 0 .3-.1.4 0v.2h.2V51.3c0-.1.2-.3.3 0l.2-.1-.1.2.2.1-.1-.1h.4l.3-.4h.1l.2.1v.2-.2h.5V51.4v-.1s0 .1.2 0a.4.4 0 0 0 .1-.3l.4-.1c0 .1.1 0 .2 0h.1v.2-.1h-.2v.1h-.1v.2h.2c0 .2 0 0 0 0l-.1.1h.7l-.1-.1V51v.2V50.8h.1l.5.3c0-.4.1 0 .2 0 .2 0 0 0 .1-.1.2-.2.4 0 .5-.1.2 0 .4-.2.6-.1h.1v.1h-.2v.1l.3-.1h.1c.2.2.2-.1.3 0l-.1.2h.2V51h.1c.2.2 0 0 0 .1v.1h.2l.1.2v.1h.3-.1.2c-.2 0 .2-.3-.1-.2 0 0-.1 0 0 0v-.1c0-.2-.3-.2-.1-.3l.1.2h.1V51l.1.1v.1-.1l.1-.1h.1c.1 0 .3.1.3-.1H48.7h-.1v.1c0 .1-.3.2-.1.3 0-.3.2-.2.3-.2 0 0 .2 0 0-.2h.2v.1c.2-.2.3-.1.4 0v.1h-.1v.2-.1h.2v.1l.1.1v-.2l.3-.4v.2c.1-.3.4 0 .5-.2 0 .2.2-.1.1.1H53c.2.2.4 0 .5 0 .2 0 .3-.2.4 0 .2.4.3 0 .5 0h.5a.4.4 0 0 1 .4.3V51h.2v.2-.2c0-.3.2 0 .2-.1h.5c.1 0 0 0 0 .1h.6c.1 0 .2-.2.3 0 .2-.2 0 .2.2.1 0-.1-.1-.2 0-.2a.6.6 0 0 1 .6.1v.1-.2.1c.1 0 0 .2.2.1l.1-.1h.1v.2H58l.3.1v-.1c0 .2-.1 0-.2 0l.2-.2.2.2c.1 0 0-.2 0-.2.3-.2.2.1.3 0v.2l.2-.2c0-.1.1-.2.3 0h.4c.1 0 .4-.2.5.1 0-.2.1 0 .2 0l.3-.2h1s.2.2.4 0h.1l.4.2.1-.1h1.9c.2-.2.4.2.6 0l.2.1H67l.1.2c.1 0 0-.1 0-.2l.2.1.3-.1H70.3c.1 0 .2.2.3.1l.3.1h.7l.3-.1c.1 0 0 .2.1 0a1 1 0 0 1 .9 0c.1.1.2.1.2 0l.1.1h.5l.7-.1h1.4c0 .3.2 0 .2.1h.9v-.1h.2L77 53Zm-37.7-1.7H39.6l-.2-.3c-.2 0 .1.2 0 .3ZM37 52l.3.1c0-.2 0-.2-.3-.1Zm-1.7.6.1.2.2-.2h-.2Zm-.5-.3s.1-.2 0-.2c0-.2-.2.2-.4 0 0 .3.3 0 .4.2Zm0 .5v-.1h-.2l.2.3v-.1c-.1-.1 0 0 0-.1Zm.3-.2.1-.1h-.4.3Zm1 .6H36v.1c-.3-.1-.4-.3-.6-.2H35 35.3s.1 0 0 .1l.6.2s0-.1 0 0h.1v-.2Zm1.3.1H37v.2c0-.3.1-.2.2-.2Zm0-.8v-.1h-.1c.3-.1.4 0 .2.1v.1l.2-.1c-.1 0 0-.3-.2-.2l-.2-.1-.2.1c-.2-.2-.5.1-.7 0H36l.1.2h-.4H36.1v.1c0 .1-.2 0 0 .1-.2 0-.2.1-.1.2h.2l-.2.1s0 .1.1 0h.2c.1-.2-.1-.2-.2-.3.3.1.2-.2.4-.3h.4v.1c-.2-.1-.2.2-.4.1v.1h.2c-.1.1-.2.2 0 .2V53.2v-.4s0-.2.1-.1h.3v-.1c0-.2.2 0 .1-.1Zm.4.5H37.4c0-.1.2-.2 0-.3v.1l-.1.2s0-.2.1 0v.2l.3-.1Zm.5 0H38v.2c-.1-.3-.2 0-.2 0v.1s.2.1.1.2c.2 0 0 0 0-.1l.2-.1.2-.2c.1-.1-.1 0-.1 0V53Zm.5.1c-.1 0 0 .4-.2.1v.4l.2-.4Zm.7-.3c0-.1.1 0 .1 0 0-.3.3.3.3-.1v-.2h-.1l-.1-.2-.1-.2a.4.4 0 0 0-.3 0c-.1.1-.3-.1-.4.1h-.3V52h-.1v.1l-.1.2V52c-.2 0-.4.3-.6.1v.3c0-.2 0 0 .1 0v-.1h.1v.2-.2h.2v.3l.4.2c0-.2.2-.2.2-.3h-.1.7s-.2 0 0 0l.1.2Zm1.3.6v-.2c0-.1-.1 0-.2 0 0-.3-.4 0-.5-.1h-.2c0-.2-.3 0-.2-.3v.1l-.1.2s-.1.1 0 .2h.2l.1.2c.2-.1.2 0 .2 0a.5.5 0 0 1 .6-.3s0 .2-.1 0h-.1v.1h.3v.1Zm0-1.1h-.1c-.1 0 0 0 0 0 .1 0 0 .2 0 .2.2 0 .1-.1.2-.2Zm1-.2c-.1.2-.3 0-.3.3 0 0-.1-.1-.1 0a.2.2 0 0 0 .2.2c0 .2-.2-.1-.1.1h-.1c0-.3-.2-.4-.5-.4l.3.3.2.4H41c.1.2.3.2.4.2 0 0 .2 0 .1.2.1 0 0-.1 0-.2.1 0 .2 0 0 0 0 0 0-.2-.2-.1 0-.1 0-.4.2-.4l.1-.1h-.1v-.2h.1l.1-.3Zm.4.8.4-.1c.2 0 .4-.2.6-.1l.1-.1-.4-.1-.1-.1s-.1 0 0 0l-.3.1v-.1c.1 0 0 0 0 0l-.2.2-.1-.1s0 .1.1 0v-.3h-.1v.7Zm.8.7-.1-.4-.3-.2v.3l-.1-.2V53c-.2 0 0 .3-.2.3.1.1.2.2.3 0 .1.1.2.2.3.1.1.3-.1.1-.1.2h-.2.5Zm.8-.3a.3.3 0 0 1-.5-.1c-.1-.2-.1 0-.2 0v.2h.1c.1 0 .2 0 .3.2-.1.1 0 0 0 0s-.1 0 0 0c.2 0 .3-.1.3-.3Zm1.2-.8h-.2v-.2h.2l-.1-.1c-.1 0-.3-.1-.4 0h-.2V52s-.2.2 0 .2c-.1.2.1.2 0 .2H44l-.2.2h.3a.6.6 0 0 1 .7 0c.1.1 0-.1.1-.1Zm.2 0v-.1l-.2.1.2.2v-.2Zm.4-1.4-.1-.1v.1L45 51l.2.2c0 .1.1.2.2.1v-.1Zm.5 1.3c-.2-.1-.2 0-.2.1h-.2c.1.2.2 0 .3 0h.1Zm1.7 0h.2l-.4-.2v.1h-.3c0 .4-.1.2-.2.1h-.1v.1c.2 0 .3.2.5.1.2.5.3 0 .5 0h-.1c0 .1 0 0-.1 0h-.1l-.1-.1c-.1 0 0 0 0 0l.2-.2Zm.5.2H48s-.3 0 0-.1a.2.2 0 0 0 0-.2H48a.2.2 0 0 0-.1.2c0 .1.1.2.3.1Zm1-1.2a2 2 0 0 0-.4 0v.2l.4-.2Zm.3 1.2-.4-.3-.1.3h.3V53l.2-.3Zm.7 0c-.2-.3-.2.1-.4 0v.4s0-.2 0 0l.3-.3.1-.1Zm.5-.3h-.3l-.1.1.3.1.1-.1Zm1.5.4v-.3c-.2-.2-.3 0-.5 0l.1.1s-.1 0 0 0h.2c0 .2.2 0 .2.2Zm.5-1.4h.3c0-.2-.2 0-.2-.1h-.1Zm0 .8s.2-.1 0 0h-.2l-.1.3.2.1h.2l-.2-.1h-.1l.2-.2c0 .2 0 0 0 0h.1Zm.6-.1c-.1-.2-.1 0-.2 0l-.2.2a.4.4 0 0 0 .4-.2Zm.7 1-.3-.2v.2H54Zm.4-.1v-.2c0-.2-.3 0-.4-.2l-.2.1v.2c.2 0 .1 0 .1-.1l.1-.1.2.1c0 .2.1.1.2.2Zm1.4-.5c-.4 0-.4 0-.3-.2-.3 0 0 .2-.2.2.1.2.2.1.5 0Zm.3-1h.3l-.2-.2H56c.1-.2 0-.2 0-.2-.1-.1-.2 0-.2 0-.2.2.1.2.2.4h.2Zm.3 1s-.2-.2-.3 0l.3.2v-.2Zm.1-1.2h.2l-.3-.1s.2 0 0 .1h.2ZM57 53l-.4-.1c.1.4.3 0 .4.1Zm0 .2-.1-.1v.3l.2-.2Zm.3-2.2c-.2 0-.1.1 0 .2-.1.1 0 .2 0 .2V51Zm2.3 0h-.2s-.2 0-.1.1c0 .2 0 0 0 0s.2.1 0 .2c.2.2.2 0 .3-.1V51Zm.9.8H60v.2l.3-.2Zm.1.6-.2-.2h-.1l.3.3v-.1Zm1.6.2c-.2 0 0-.2 0-.2-.3 0 0 .2 0 .3v.1-.2Zm.2-.3H62v.1h.4v-.1Zm.3-1h-.2l-.1.1.2.2c0-.1 0-.2.2-.2h-.1Zm.5.2v.3h.1v-.3Zm.8.5-.2.3.3-.2h-.1Zm2 0-.2.1s.1.1.2 0Zm.1 0c0 .2.2.1.3.1h.1l-.3-.2Zm0 .5.2.3v-.2l-.1-.2v.1Zm.5.5-.4-.3v.2h.4Zm1.8-.8-.2-.1H68s0 .3.2.2h.1Zm1 .5s0 .1-.1 0v.2h-.1l.1.1.2-.3Zm5.7.3h-.3l.2.1.1-.1ZM48.2 52.7ZM62 52.3ZM36.7 52.8ZM37 52Z"/><path d="M44.3 53.7h-.1l.1-.1v-.1.1H44c.2 0 .2.2.3.3l.3.1v-.4h-.3ZM33.8 53.2l-.3-.1V53v.3H33.7ZM44.9 53.8h-.1c.1-.1.1-.2 0 0-.2 0 0-.3-.1-.1v.2c.1.2.2 0 .4 0v-.1s-.2-.3-.2 0ZM35.4 51h.5l-.6-.2v.1l.1.2ZM45.4 53.6h-.2c0 .2-.2-.1-.1.1.1.3.3.2.4 0v-.1ZM41.2 50.9c0-.3-.2 0-.3 0h-.1l.2.1.2-.1ZM47 53.8l.2-.1-.2-.1v-.2l-.2.2.2.2ZM52.4 53.6v-.2c-.1.1-.2 0-.2.2 0 .3.2-.1.2.1 0 0 .2 0 0-.1ZM41.6 51s0-.1-.1 0v.1c-.1.1 0 .2 0 .2v-.1l.1-.2ZM41.6 51.2ZM48.3 53.5v.1s0 .2.1.1c.1 0 0-.1 0-.2 0 0 0 .1-.1 0ZM74.9 53.2v.1l.3.2c0-.2-.2 0-.3-.3ZM60.9 53.5l-.3.2h.4l-.1-.2ZM56.3 53.5v.3h.2v-.2h-.2ZM63.8 53.5h-.1l.2.1v-.1h-.1ZM69 53.2h-.2c0 .3.2 0 .2.1v-.1ZM51.3 53.5c0 .1 0 .3-.2.3h.2c0-.2 0-.1 0 0 .2-.2 0-.2 0-.3Z"/><path d="m35.7 51 .3-.2h-.1l-.2.1ZM48.2 53.4H48l.1.3v-.3ZM61.7 53.2c0-.1 0-.1 0 0v.2c.1 0 0-.1 0-.2ZM59.7 53.6h.4-.4ZM39.7 52.7c.1-.1-.1 0-.1-.2 0-.1-.1-.2-.2 0l.1.2h.2ZM38.8 52.3v.1h.2l-.2-.1ZM77 51.4v-.1ZM120.5 53v.2l-.1-.2h-.1v.5c-.2-.4 0 .2-.1 0h-.5c0-.2 0-.4-.2-.2v-.1c0-.2 0 0-.1 0-.1-.2-.2 0-.3 0-.2.2-.4 0-.5 0l-.3-.1-.2.1v.3l-.5-.1c-.1-.2-.3-.2-.5 0v-.2c-.2 0-.3-.2-.2-.4-.3-.1-.2.1-.2.2 0 .4-.3 0-.3.3H116v-.1h-.2c-.1 0 .1.3-.1.2h-.3v-.1c0-.3-.2-.2-.3-.4v-.1l-.1.2c.1 0 0 0 0 .2h-.3c-.1-.1-.1 0-.2 0l-.2-.1h-.2c-.1.5-.2.1-.4 0a.4.4 0 0 0-.3 0c-.2 0-.2-.2-.3 0 0 0-.1-.1-.1 0 0 0-.2 0-.1.1 0 0-.2.2 0 0a1 1 0 0 0-.5-.1l-.5.1V53v.1c-.1.2-.2-.2-.3 0v.2h.1s0-.2 0 0c.1 0 0 0 0 0-.2 0-.3.1-.4 0l-.5-.1c0 .1.2.1.1.3l-.1-.1h-.3c-.1 0-.3-.3-.5-.2h-.3c0-.1-.1 0-.2 0l-.3.2V53c-.1.1-.2 0-.2 0-.2.1-.4 0-.6.2h-.6c-.3 0 0-.1 0-.1-.3 0-.4 0-.6.2v-.1l-.1-.2-.1-.1h.2c.1-.3.3 0 .4-.2v.2h.1c.2 0 0-.3.3-.3a2 2 0 0 0-.6 0c-.2 0-.4 0-.4.3-.2 0 0 .2-.1.2h-.3c0-.1 0 0 0 0-.1.2-.4 0-.5.1 0 0 0 .2-.1 0 0-.2-.2 0-.3 0-.1 0-.2 0-.3.3l-.2-.3c.1 0 .1 0 0 0 0-.1 0 0 0 0l-.1-.3v-.2.1c0 .2-.2.2-.2.3h-.4l-.1.1h.1s0 .3-.2.2h.1l-.2-.3v.1l-.2.1v.1h-.1c0-.4-.2 0-.3 0l-.1-.1h.2c0-.2-.1-.2-.2-.2-.2.2-.3-.1-.4 0H103v.2c-.1 0-.2 0-.2-.2h-.1v.2h-.1V53v.1c-.2 0-.3.2-.4 0-.2 0-.1.2-.2.1v.2c.2 0 .1 0 .1.1a.2.2 0 0 1-.2 0v-.4.3h-.1l-.1-.1.1-.1v-.2l-.2.2-.2-.1V53v.2h-.3c-.1-.1-.1-.1-.2 0v.1h-.2c0 .5-.5 0-.6.3v-.1l.2-.2c-.1.2-.5-.2-.4.2a.2.2 0 0 1 0 .1h-.3l.2-.3v-.2l-.1.3c0-.2 0-.3-.2-.1-.1.1-.1 0-.1-.1v-.2h.3v.1-.3l-.2.1c-.1 0 0-.1 0-.2 0 0 0 .2-.1 0l-.1-.1c-.2 0-.3 0-.2.2v.2h.2V53l-.1-.2.1.2.1.3c0 .1 0 0-.1 0-.3-.1-.2.2-.2.3h-.3c0-.2-.4 0-.4-.4 0 .4 0-.1-.1 0 .1.2-.2.2 0 .3h-.3c-.1-.1-.2-.2-.4-.1-.1 0 .1.1 0 .2-.2.2-.2-.2-.3-.2 0-.1-.1 0-.1 0h-.7c-.2 0 0 0 0 0v.2c-.1-.2-.2 0-.3-.1-.1-.2-.2-.2-.3 0h-.1l-.2-.3s0-.3-.1-.1v.4H95.1c-.2 0-.3 0-.4-.2 0 .2-.3 0-.4.1-.3-.2-.6 0-.9 0h-.3l-.3.2v.2c0-.1-.2 0-.1-.2h-.1v.1-.2c.1 0 0-.1 0-.2 0 .2 0 0-.1 0h-.6l-.5.1c0 .3-.2 0-.3.1 0-.3-.2-.1-.3-.2v.1c-.1 0-.1 0 0 0l-.2.2v-.4.2h-.1c-.1-.1-.1-.1-.2 0H90l-.7.2.1.1a.2.2 0 0 1-.3 0l.3-.2c0-.2-.1 0-.2-.1 0 0-.2-.2 0 0-.1 0-.2.1-.2 0-.3-.3-.6 0-1-.1l-.4.1c.1.2 0 .1 0 .1-.2 0 .1-.2 0-.1-.3 0-.3.2 0 .4l-.1.1v.1l-.2-.2c-.1 0 0 .1 0 0h-.1c0 .2-.2 0 0 .2h-.1c0-.3-.2 0-.3 0 0-.2-.3 0-.4 0-.2-.2-.4 0-.6 0l-.2-.2c0-.2 0 .1-.2.1s0-.1 0-.1c-.3 0 0 0 0 0h-.2v-.2l-.1.1v.2h-.5c0-.2-.2-.3-.3 0-.1-.3-.2.1-.4 0 0-.2-.3 0-.5 0 0 0-.2-.2 0-.2.1 0 0 0 0 0h-.2v.2l-.2-.1h-2c-.1-.1-.2-.1-.4 0l-.9-.1-.4-.1H79c-.2-.2-.4.1-.6 0l-.2-.3h-.6c0-.2-.2-.3-.3-.4 0 .3-.2.2-.2 0v-.5a.1.1 0 0 0 .1.1c.2-.1.4.2.6 0v.1l.3-.1c0-.1-.1 0-.2 0 0 0-.1 0 0-.2v-.1h-.5l-.1.1V52h-.1c0 .3-.1.2-.1.1V51.3s.3 0 .2-.2V51c0 .2.1 0 .2 0v.3-.2h.3l.1-.2.3.1c0 .1 0-.3.1 0l.2-.1c.2-.2 0 .2.1.1 0 .2 0 .2.1 0l.1.1v.1h-.1l.1.1.6.2s.1 0 0-.1l-.2-.1.2-.1c.1-.3.4.2.5-.1V51l-.3-.1h.3c.2 0 0 .2.1.2.2 0 .1-.2.2-.2h.2l-.1.2h.1l.4-.2a1 1 0 0 1 1.1.3c.1.2 0-.2 0 0 .2.1.3-.1.3-.2 0-.3.2 0 .2 0h.4c.1.3.3-.3.3 0 .1-.3.3.3.4-.1 0 .2.2.1.2.3v.2-.1h.3c.2 0 .1.2 0 .2v.1h.3v-.4s.2-.2.3 0h.1v.2l.1.1v-.1h-.1.4v-.1l.4-.3s.3 0 .2.1l.1.1V51h.4a.4.4 0 0 0 0 .3h.3a.4.4 0 0 0 .1-.3l.3-.1h.3v.1-.1h-.1v.1c0 .1 0 .1 0 0H87v.2l.2.1c0 .2 0 0-.1 0 0 0 0 .2.1.1h.5v-.2c-.2 0 0-.2-.1-.3l.1.1v.1V50.8h.1l.5.4c0-.4.2 0 .2 0 .2 0 0-.1.1-.1.2-.2.4-.1.5-.1.2 0 .4-.2.6-.1h.1v.1h-.1v.1l.2-.1h.2c0 .2 0-.1.2 0v.1c-.1 0 0 0 0 .1v-.1l.2-.1c.2.1 0 0 0 .1h.2l.1.2v.2l.3-.1H91v.1h.2c-.1 0 .2-.4-.1-.2 0 0-.1 0 0-.1 0-.2-.3-.2-.1-.4l.2.3v-.2l.1.2h.1v-.2h.2c0 .1.2.2.3 0h.2-.1c0 .2-.2.3-.1.4v-.1c0-.2.2 0 .3-.2.1 0 .2 0 0-.1H92.6l.4.1h-.1v.2l.2-.1s-.2 0 0 .2H93h.1v-.1c0-.2.2-.3.3-.4.1 0 0 .1 0 .2h.1c0-.3.3 0 .4-.2 0 .1.2-.1.2 0h1.2l1.1.1h.6c.1 0 .2-.2.3 0 .2.4.3 0 .5 0h.5a.4.4 0 0 1 .4.3V51h.2v.1-.1c0-.3.3 0 .2-.2h.5c.1 0 0 .1 0 .2h.6c.1 0 .2-.2.3 0 .2-.3 0 .1.2 0v-.1a.6.6 0 0 1 .6.1v.1-.2h.1c0 .1 0 .3.1.2l.1-.2h.2v.2h-.2v.1h.3c0 .1-.1 0-.1 0l.1-.2.2.1c.1.1 0 0 0-.2.3-.1.2.2.4.1v.1h.1c.1-.2.2-.3.3-.1l.4-.1c.1 0 .4-.1.5.2 0-.3.1-.1.2 0l.4-.2h.9c.1 0 .3.2.4 0h.1l.4.1h2c.2-.3.4.2.6 0h1.8V51.4c.1 0 0-.2 0-.2H113.8l.3.1.3.1c.3 0 .5-.2.7 0l.3-.2c.1 0 0 .2.2.1a1 1 0 0 1 .8 0h2.9c0 .3.2 0 .2.1h.4l.5-.1h.2V53ZM83 51.2H83.2L83 51c-.2 0 .1.2 0 .3Zm-2.4.7.3.1c0-.2 0-.2-.3-.1Zm-1.7.6.1.2.2-.2h-.2s-.1 0 0 0Zm-.5-.3v-.2c0-.2-.2.2-.4 0 0 .3.3 0 .4.2Zm0 .5v-.1H78l.1.3.1-.1c-.1-.1 0 0 0-.1Zm.3-.2.1-.1h-.4.3Zm1 .6h-.1v.1c-.3-.1-.4-.3-.6-.2h-.3H79s.1 0 0 .1l.6.2s0-.1 0 0h.1v-.2Zm1.3.1h-.3v.2c0-.3.1-.2.2-.2Zm0-.8v.1-.2h-.1c.3-.1.4 0 .2.1v.1l.2-.1c-.1 0 0-.3-.2-.2l-.3-.1s-.1 0 0 .1c-.3-.2-.6.1-.8 0h-.2l.1.2H79.5h.2v.1c0 .1-.2 0 0 .1-.2 0-.2.1-.1.2h.2l-.2.1s0 .1.1 0h.2c.1-.2-.1-.2-.1-.3.2.1.1-.2.3-.3h.5v.1c-.2-.1-.3.2-.4.1v.1h.1c0 .1-.1.2 0 .2V53.2h.1v-.5h.3v-.1c0-.2.2 0 .2-.1Zm.4.5H81c0-.1.2-.2 0-.3v.1l-.1.2s.1-.2.1 0v.2l.3-.1Zm.5 0h-.2v.2c-.1-.3-.2 0-.2 0v.1s.2.1.1.2c.2 0 0 0 0-.1l.2-.1.2-.2c.1-.1-.1 0-.1 0V53Zm.5.1c-.1 0 0 .4-.2.1v.4l.2-.4Zm.7-.3c0-.1.1 0 .1 0 0-.3.3.3.3-.1v-.2h-.1l-.1-.2-.1-.2a.4.4 0 0 0-.3 0c-.1.1-.3-.1-.4.1H82V52H82v.1l-.1.2V52c-.2 0-.4.3-.6.1v.3c0-.2 0 0 .1 0v-.1h.1v.2h.1v-.2c0 .2.2.2.2.3h-.1l.4.2c0-.2.2-.2.2-.3-.1 0 0 0 0 0h.6s-.1 0 0 0l.1.2Zm1.3.6v-.2c-.1-.1-.1 0-.2 0-.1-.3-.4 0-.5-.1h-.2c0-.2-.3 0-.3-.3v.1c.1.1 0 .2 0 .2s-.2.1 0 .2h.2l.1.2c.1-.1.2 0 .2 0a.5.5 0 0 1 .5-.3s0 .2 0 0H84v.1h.2v.1Zm0-1.1h-.1c-.1 0 0 0 0 0 .1 0 0 .2 0 .2.2 0 .1-.1.2-.2Zm1-.2c-.1.2-.3 0-.3.3 0 0-.1-.1-.1 0a.2.2 0 0 0 .2.2c0 .2-.2 0-.1.1h-.1c0-.3-.2-.4-.5-.4l.3.3.2.4s0 .1-.1 0h-.2l.2.2h.2s.2 0 .1.2c.2 0 0-.1 0-.2.2 0 .2 0 0 0 0 0 0-.2-.1-.1 0-.1-.2-.4.1-.5 0 0 .1.1.1 0l-.1-.2h.1l.1-.3Zm.4.8.4-.1c.2 0 .4-.2.6-.1l.1-.1-.4-.1-.1-.1s-.1 0 0 0l-.3.2v-.2l-.2.2-.1-.1s0 .1.1 0v-.3h-.1v.7Zm.8.7v-.3c-.2 0-.3-.2-.3-.2-.1 0 0 0 0 .2L86 53c-.1 0 0 .2-.2.2.1.1.2.2.4 0 0 .2.1.2.2.1.1.3 0 .1-.1.2h-.1l.2.1.1-.1Zm.8-.3a.3.3 0 0 1-.5-.1c0-.2-.1.1-.2 0v.2h.1c.2 0 .2 0 .3.2v.1-.2c.2 0 .3 0 .3-.2Zm1.2-.8h-.2v-.1h.1c.1 0 0-.1 0-.1-.1 0-.3-.2-.4 0L88 52V52h-.1c0 .1-.2.2 0 .3-.1.1.2.1 0 .1h-.2l-.2.2c.3.1.3 0 .4 0a.6.6 0 0 1 .6 0l.1-.1Zm.2 0v-.1l-.2.1.2.2v-.2Zm.5-1.3L89 51a1.2 1.2 0 0 1 0 .2l-.2-.2c-.1 0 0 0 0 0v.1l.1.2h.2v-.1Zm.4 1.3c-.1-.2-.2 0-.2 0h-.1c0 .2.1 0 .2 0h.1Zm1.7-.1v.1l.2-.1-.3-.2v.1h-.4c0 .4-.1.2-.2.1v.1c.1 0 .2.2.4.1a.1.1 0 0 1 .1 0c.1.5.3 0 .4.1v-.2.1c-.1.2-.2 0-.2 0l-.2-.1c-.1 0 0 0 0 0l.2-.2Zm.5.2s-.3 0-.1-.1a.2.2 0 0 0 .1-.2h-.2a.2.2 0 0 0 0 .2c0 .2 0 .2.2.1Zm1-1.2a2 2 0 0 0-.4 0v.2l.4-.2Zm.4 1.2-.5-.3v.3H93V53l.2-.3Zm.6 0c-.1-.3-.2.2-.4 0v.4s0-.2.1 0l.2-.3v-.1Zm.5-.2H94l.2.2.1-.2Zm1.5.3v-.3c-.1-.2-.3 0-.5 0l.2.1s-.2 0-.1.1l.2-.1c0 .2.2 0 .2.2Zm.5-1.4h.1c0 .1.2 0 .2 0 0-.2-.2 0-.2-.1v.1Zm0 .8s.2-.1 0 0h-.2l-.1.3.2.2.2-.1-.2-.1v-.2h.1c0 .2 0 0 .1 0Zm.6-.1c-.1-.2-.1 0-.2 0l-.2.2a.4.4 0 0 0 .4-.2Zm.7 1-.3-.2v.2H97.6Zm.4-.1v-.2c0-.2-.3 0-.4-.2v.1h-.2l.1.2c.1 0 0 0 0 0l.1-.2.2.1c0 .3.2.1.2.2Zm1.4-.5c-.4 0-.4 0-.3-.1V52c-.3 0 0 .3-.2.4h.5Zm.3-1h.3c0-.1 0-.2-.2-.2h-.1c0-.2-.1-.1-.2-.2-.2.2 0 .2 0 .4h.2Zm.4 1c-.2 0-.3-.2-.4 0l.3.2v-.2Zm0-1.1.2-.1-.3-.1s.2 0 0 .1h.1Zm.4 1.7-.3-.1c0 .4.2 0 .3.1Zm0 .2h-.1c0-.1 0 0 0 0v.2l.1-.2Zm.3-2.2c-.2 0 0 .1 0 .2v.2-.4Zm2.3 0h-.2l-.1.2c0 .1 0 0 0 0 .1 0 .2 0 .1.1.1.2.1 0 .2 0V51Zm.9.9s-.1-.1-.1 0h-.2v.1l.3-.2Zm.2.5-.3-.2.2.3v-.1Zm1.5.2c-.2 0 0-.2 0-.2-.3 0 0 .2 0 .4v-.2Zm.2-.3h-.3v.1h.3v-.1Zm.3-.9H106l.2.2.1-.2Zm.5 0v.4s.1.1.1 0v-.3Zm.8.6-.2.3c.2 0 .2-.1.3-.2h-.1Zm2.1.1s-.1-.1-.1 0h-.2s.1.2.2 0h.1Zm0-.2c0 .3.2.2.3.3h.1c0-.2-.2-.2-.3-.3Zm0 .7.2.2V52.5h-.2Zm.5.4-.4-.2v.2h.4Zm1.8-.8-.1-.1h-.2c0 .1 0 .3.2.2h.1Zm1 .6c0-.2 0 0-.1-.1v.4l.1-.4Zm5.7.2h-.3l.2.2.1-.2ZM91.8 52.7ZM80.3 52.8ZM80.5 52ZM78.9 53.1Z"/><path d="M87.9 53.7h-.1v-.2.1h-.2v.1c.2 0 .2.1.3.2l.3.1v-.3H88ZM77.4 53.2 77 53V53v.3h.4ZM88.5 53.8h-.2c.1-.1.2-.2 0 0-.1 0 0-.3 0-.1l-.1.2c.1.2.3 0 .4 0v-.1s-.1-.3-.1 0ZM79 51h.5l-.6-.2v.1l.1.2ZM89 53.6h-.2c0 .2-.2-.1-.2.1.2.3.3.2.5 0l-.1-.1ZM84.8 50.9c-.1-.3-.2 0-.4 0l.2.1.2-.1ZM90.6 53.8l.1-.1-.1-.1v-.2l-.2.2.2.2ZM96 53.6l-.1-.2-.1.2c0 .3.2-.1.2.1 0 0 .2 0 0-.1ZM85.2 51s0-.1 0 0H85l.1.1v.2-.1l.1-.2ZM85.2 51.2ZM91.9 53.5v.1l.1.2v-.3s0 .1-.1 0ZM118.5 53.2v.1l.3.2c0-.2-.3 0-.3-.3ZM104.4 53.5l-.2.2H104.5v-.2ZM99.9 53.5v.3h.1v-.2h-.1ZM107.4 53.5h-.1l.2.1v-.1h-.1ZM112.6 53.2h-.3c.1.3.2 0 .3.1v-.1ZM94.9 53.5c0 .1 0 .3-.2.3h.2c0-.2 0-.1 0 0 .2-.2 0-.2 0-.3Z"/><path d="m79.3 51 .2-.2c-.1 0-.3 0-.2.1ZM91.8 53.4h-.1l.1.3v-.3ZM105.3 53.2c0-.1 0-.1 0 0v.2-.2ZM103.3 53.6h.3-.3ZM83.3 52.7l-.1-.2c0-.1-.1-.2-.2 0l.1.2h.2ZM82.3 52.3l.1.1h.2l-.2-.1ZM125.2 52.4c0 .2 0 .3-.2.2 0-.1 0 0-.1 0-.1-.1-.1 0-.2 0 .3.3-.4 0-.1.4-.2-.1-.3.2-.4.2 0-.2-.2 0-.2-.1s.2 0 0-.2H124.3l-.3-.2v.2a1 1 0 0 1-.4 0h-.6s0 .1-.1 0c0 0-.2 0 0 .1v.1h.1a1 1 0 0 0-.9.2c0-.1-.1-.2-.2-.1l.1.2h.2l-.2.1h-.1l-.6-.1v.1c0 .2 0 0 0 0-.2.2-.2.2-.2 0l-.1-.1h-.5V53l.4.2.3-.2h-.6v-1.7h.2-.1l-.1-.1h.2c0 .3.2 0 .3.1h.3c0 .1 0 .1.1 0h.3a6.7 6.7 0 0 1 1.1 0c.3-.1.6 0 .8 0l.1-.2.2.1s.2.2.3 0h.2c.2 0 .2.2.3.3l.1.2h-.1l-.2.2H125h-.2c-.2.1 0 .3 0 .4h.2l.3.1Zm-4 .3-.2-.1h-.2l.3.2.1-.1Zm0 .5h-.2c0 .2 0 .1 0 0 .1 0 .1.2.2.1v-.2Zm.7-.3v-.1H121.5v-.1l-.2-.1v.2c-.1 0-.2.1 0 .3h.1V53l.4-.1Zm.3-.2-.4-.1c-.2 0 0 0 0 0l.1.2h.3ZM125.3 51.5l.2.3v-.2l-.2-.1ZM124.5.5ZM128.4 2.5l-.2.5-.1-.1-.8-.1h-.2c-.2 0 0 0-.1-.1-.1-.2.1-.2.2-.2l-.1-.3v.1c-.4 0-.3.4-.6.3 0 0-.1 0 0 0 0 .3-.3.2-.4.2-.1 0 0 0 0 0l.2.1h-.2l-1.2-.3a2 2 0 0 0-.5 0l-.2-.1v-.1H124.5l-.4-.1h-.1v-.1c.4 0 0-.1.1-.1-.3 0 .5-.7-.3-.5-.1 0-.3 0-.4-.2h.2v-.1H123.2v-.2c.2-.2.2-.4.2-.6l.1-.1a.3.3 0 0 0 .4 0h.2v.1h.4-.1c-.1 0 0 0 0 0h.4c.2.3.5.2.7.1v.1h-.1s.3-.2.3.1h.4l-.2-.1h.5l.7.2h.3c.3 0 0 0 0 0h.3c0 .1 0 .1.1 0h.1c.1.1.3 0 .3.2h.1s.1 0 0 .1V1.5l.2.2-.2.6s0-.1 0 0v-.1h-.2l.2.3Zm-3.1-.8-.3-.1h-.2l.2.2.3-.1Zm.9 0H125.2h.3c.1 0 0 .3.2.1l.4-.2Zm1.8.6c0-.2-.1-.1-.2-.2-.2-.1 0 .2-.1.1l.2.2.1-.1Z"/><path d="M128.1 3c-.1.1-.2-.1-.4 0s0 .1 0 .2h.2c.2 0 .1 0 0 0l.2.1.1-.2Z"/><path d="M127.5 3c-.2 0-.4-.1-.3.2 0-.1.1-.2.4-.1ZM127.2 3.2ZM127.2 3.3h-.1ZM126.8 2.8l.2.3h.1c0-.2-.2-.2-.3-.3ZM128.7 1.4ZM146.4 26.5ZM131 50.2V50h.4l-.3-.3v-.1c.4.3 0-.2.2-.1.2 0 .4-.3.6-.1.1 0 .3.2.4 0 .2.2.1 0 .2 0 .2 0 .2-.2.3-.2h.2c0-.2.3-.3.4-.4h.5l.2-.2c-.2-.1 0-.2 0-.3.2 0 .2-.3.5-.2a.6.6 0 0 0 .6-.4h.2c.2 0 .4 0 .4.3.4-.1.2-.3 0-.3-.2-.3.5-.3.3-.5l.2-.1c0-.1 0 0 .1 0l.1-.1v.1l.2-.2c.2 0-.3-.1 0-.3l.4-.1c.1.3.3 0 .5 0l.2.1v-.3c-.2.1-.2 0-.2 0 0-.2.3-.4.4-.4.2 0 0 0 .1-.1l.4-.2.1-.1c-.2-.5.2-.4.5-.4.1-.1.3-.2.3-.4.1-.2.3 0 .4-.2 0 0 .1 0 0 0 0 0 .2-.3 0-.3 0 0 0-.3.1 0l.5-.4.3-.6.1-.1v.2l.2.1v-.1c-.1-.2.3 0 .2-.3v-.2l-.2.2s0 .1 0 0c-.2 0 0 0 0-.1l.3-.4c.3 0 .4-.4.6-.5h-.1s-.2.2-.2 0v-.1h.1c0-.1.2-.1.2-.3 0-.2.5-.2.6-.5a.4.4 0 0 1 .3-.3v-.3l.2-.4h.2v-.2c0-.3.3-.5.3-.7l.4-1c.1-.2 0 .3.2 0l.2-.7v.2l.3-.2c0-.1 0 0 .1 0l-.1.2c.1.3-.2.4-.1.6h-.1v-.1l-.1.2h-.1c0 .3.3.2.2.4l.4-.6c0-.3.3-.6 0-.7 0-.3-.2-.1-.2-.3 0-.2 0-.2.2-.2v-.2c-.2-.2.2-.4 0-.6l.1-.2c.2 0 .2-.2.2-.3v-.3l-.2-.2.3-.2c0 .1 0 .2.1.1v-.2h.5c-.3 0-.2-.2-.3-.3-.1 0 0-.1 0-.2s0-.3.2-.3h-.1v-.2.1h-.1s-.2 0-.1-.2v.1l.4-.2v-.2h-.1v-.2h-.2l.2-.1c.3 0 0-.3 0-.5h.1v.2c.2 0 .2-.1.2-.2-.1-.3.2-.4.2-.6V32l-.1.1v-.4h-.1c0-.2 0-.3.2-.2v-.2s0-.1-.1 0h-.2l.1-.2H146.4c0-.3-.3-.4 0-.6 0-.2-.2-.1 0-.2h-.2c-.1.2-.2.1-.2 0a.2.2 0 0 1 0-.2h.4-.2v-.2l.1-.1v.2h.3v-.1l-.2-.2c.2 0 0-.3.2-.2v-.1l-.2-.1.1-.3v-.2s0-.2 0 0h-.1v-.3c.1 0 0-.2 0-.2-.5 0 0-.5-.3-.7h.2l.2.2c-.2-.1.1-.6-.3-.6l-.1-.4.1.2c0 .1.1.1.2 0h.2-.2c.1-.1.2-.1 0-.3-.1-.2 0-.2.1-.2l.3.1-.1.3h-.1.4l-.1.2.1-.1v-.2h-.2c0-.3.2 0 .2-.2.1 0-.2 0 0 0 0-.1.2 0 .2-.3s-.1-.3-.3-.2l-.2.1.1.1.2-.1c0 .1 0 .2-.2.2 0 0-.2-.1-.3.1v-.2c.2-.3-.1-.2-.2-.2v-.4c.1-.2-.1-.6.2-.6-.4-.1.2-.1 0-.2-.1.2-.2-.2-.3 0v-1c0-.1 0 .2-.2 0-.2-.3.2-.3.1-.5.2 0 0-.1 0-.1-.1-.2.1-.2 0-.4v-.6c-.1-.1-.2.2-.2 0h-.1V22c.1-.2 0-.3-.1-.4v-.2.1c.1-.1.3-.3.2-.4 0 0 .2 0 0-.2l-.3.2-.1-.3a.2.2 0 0 0 0-.2.5.5 0 0 1 0-.5c-.2-.1 0-.4-.2-.6 0-.4-.4-.7-.5-1.1l-.1-.5a1 1 0 0 0-.5-.3h-.1s-.1-.2 0-.2v-.1h-.1v-.1h.2c.1.2.2.1.1 0-.1 0 0-.1 0-.2l-.4-.7-.4-.6c-.2.1-.1-.3-.3-.3.3-.2 0-.3 0-.5h-.1v.2l-.2-.2v-.1l.2-.2h-.2l-.1-.3-.2-.2a6 6 0 0 0-.6-.7v.2h-.1a.4.4 0 0 1-.3-.4c0 .2 0 .1.2.1l.3.2h.1c.1-.2-.1-.2-.1-.3 0 0 0-.3-.2 0 0-.1-.1-.2 0-.2a.7.7 0 0 0-.3-.6l-.4-.6-.5-.3c0 .1-.1 0-.2 0 0-.2.3 0 .1-.2-.2-.2-.3 0-.3.3H139.8v-.3s0 .1 0 0h-.1c0 .1-.2-.2-.2 0 .2-.2-.2-.2-.2-.4 0-.1-.4-.2-.4-.4-.2-.3-.5-.3-.6-.5v-.4c0-.2-.2 0-.4 0-.2-.2.2-.1 0-.2-.3-.2.1 0 0 0l-.1-.2v-.1h-.2v.2l-.5-.6c0-.2-.1-.3-.4-.3 0-.2-.3 0-.3-.3l-.6-.4s0-.3 0 0h.2l-.1-.2h-.2l-.4-.2-.2-.2-.8-.5-.7-.5-.5-.3-.5-.3c-.4-.1-.8-.3-1.1-.6-.2-.1-.5-.2-.6-.4 0-.1-.3 0-.4 0 0-.4-.5-.1-.7-.4 0-.1 0-.3-.2-.3l-.3-.3-.4-.1-.3-.5c-.2.4-.3.2-.4 0l.2-.5c0 .1 0 .2.2.2.3 0 .4.4.8.3h.3-.2c0-.1-.1-.1 0-.2l.1-.1c-.2 0-.4-.3-.7-.2h-.2v-.2h-.1c-.1.3-.2.2-.2 0l.2-.6v-.1l.2-.1s.3 0 .3-.2c0 .2.2 0 .2.1v.2c.1.1.2 0 .2 0 0-.2 0-.2.3 0l.3-.1c.1 0 .3 0 .3.2.1.2.2-.2.2 0h.3c.4 0 0 .3.2.3-.1 0-.1.1 0 0l.2.1v.1h-.1v.2a16.5 16.5 0 0 0 .8.3c-.1 0-.3 0-.2-.2 0 0 .3.1.4 0 .2 0 .4.5.6.2-.2 0-.2 0-.3-.3l.5.3c.3 0-.1.1 0 .2h.6l-.2.1.2.1c.2.3.5.1.7.2.3 0 1.2.7 1.3 1 0 .4 0 0 0 0l.1.2a.2.2 0 0 0 .3 0c.2-.2.2.1.3.1.2 0 .4.2.5.3 0 .4.5 0 .4.3.2-.1.2.5.5.3-.2.2.2.3.1.4h-.1v.3-.2h.1l.3.3c.1.2 0 .2-.2.2l.4.2v-.1l.1-.1c.2 0 .4 0 .4.2l.2.1-.2.1.1.3V6.8c0 .2.3.3.5.5h.6l.2.1c-.1.1.2.2 0 .3V8l.1-.1h.1l.5.4h-.2v.2c.1 0 0 .2.2.3l.4-.1c.2 0 .4.2.4.3 0 .2.3.2.3.3v.1h-.1v-.1h-.2l-.1-.2-.2.1v.2l.2.2-.1-.1h-.1l.1.2.6.6V10c0-.2.2-.1.2-.3v.3h.2v-.1l.3.9c.4-.3.2.1.2.3.2.2.2 0 .2 0 .3 0 .4.4.6.6.2.1.4.3.5.6v.2-.2h-.2l.3.3v.3c0 .2.3 0 .3.2v.1h-.2l.2.1h.2v.2c0 .2 0 0 0 0l-.1.1.1.3v.2h-.1v.1l.2.2h-.2l.1.2h.1c-.1-.1.5.1.1-.2v-.1h.1c.2 0 0-.4.2-.3.2.1 0 .3 0 .4h.1v.2h-.1.2v.2c.1.2.2.5.4.5l.2.2v.2l-.1-.2-.1-.1c-.1 0-.3-.2-.3 0v.1h.1c.2 0 .2.2.3.3.1 0 .2.3.1 0l.2.2v.1c-.1 0 0 0 0 0a.4.4 0 0 1 .2.3.4.4 0 0 1 0 .3h-.1v-.2h-.2v.2l.2.1H146.3l.1.3.2-.2.5.3-.1.2c.2 0 .1.5.4.5-.2 0 .2.3 0 .3v.3l.4.9.2.7c.3.5.4 1.1.3 1.7l.3.8c0 .2.2.4 0 .6-.3.3.1.4.1.7l.1.8a.7.7 0 0 1-.2.7h.2v.3h-.2.2c.3 0 0 .3.1.3v.8c0 .1 0-.1 0 0-.2.4 0 .6 0 .9 0 .1.1.3 0 .4.2.3-.2.1-.1.3v.1s.1-.2.1 0 0 .6-.2.8v.1h.2l-.1.1c-.1 0-.2 0-.2.2l.2.1v.3l-.2-.1V29.7l-.2.6h.2c-.2-.2 0-.2 0-.3l.1.3-.1.2c-.1.2 0 .1.1.2.2.3-.2.2-.1.4 0 0-.2 0-.1.1v.2c.2.1.3.2 0 .5v.5c0 .3 0 .7-.3.7v.1c.2.1 0 .2 0 .3v.5l-.4 1.4c0 .2-.3.4-.2.6v.2l-.3.6c-.1.1 0 0 0 .2l-.6 1.4-.3.6-.3.6-.1.1c.1.4-.4.4-.4.8l-.2.2-.1.2-.1.2c-.2.4-.4.8-.7 1l-.4.6h-.3c0 .2.2 0 .2.2h-.3l.1.2-.3.4-.4.6-1 1.1-1 .9-.4.5-.3.2c-.2.2-.3.1-.5.2-.3.2-.4.7-.8.8l-.3.4c0 .1 0-.2-.2 0-.3.4-.6.7-1 .8-.3 0-.3 0-.4.2l-.6.5-1 .6-1 .5-1 .5c0-.3-.1.2-.2 0h-.2.1v.1l-.5.1-.7.4v.1H131.8l-.7-1.8Zm5.9-45 .2.3h.1l-.1-.4c-.3-.2 0 .3-.2.2ZM133.4 4l.4.3c0-.2 0-.3-.3-.3h-.1Zm-2.5-.5v.2h.3l-.2-.3h-.1Zm-.6-.6.2-.1c-.1-.2-.5 0-.6-.3h-.1c0 .3.5.1.5.4Zm-.2.5v-.1h-.2v.2h.2c-.1-.2 0 0 0-.2Zm.5 0 .2-.1-.6-.2.4.2Zm1.1 1.2-.2-.2v.1h-.1c-.2-.2-.3-.5-.6-.5-.2-.2-.3-.2-.4 0h.4s.2 0 0 .1l.6.5H131.7Zm1.5.8-.3-.2h-.1v.3h.1c0-.4.2-.1.3 0v-.1Zm.4-.7v.1l.2-.1-.2-.1h.1c.3 0 .4.2 0 .2V5h.3c0-.1.1-.2-.1-.3l-.3-.2c0-.1-.2-.2-.2 0-.2-.4-.7-.3-1-.6h-.2V4a3 3 0 0 0-.4-.3l.1.2.2.1h-.2c-.1 0-.2 0-.2.2h.1l.3.2h-.2l-.2-.1.2.1h.2c.3 0 0-.2 0-.3.3.2.3-.1.6 0l.5.2v.1c-.2-.2-.4 0-.6-.1.2 0 .2.1.1.2-.1 0-.2 0 0 .1l-.1.2v.1l.1-.4c.1.1.1-.1.2 0l.4.2v-.1c0-.2.3.2.3 0v.1Zm.3.8-.1-.1-.2-.2s.3 0 .1-.3c0 0 0 .2-.2.1l-.1.1.2.1v.2h-.1l.4.1Zm.6.3h-.4c0-.2-.2 0-.2-.1v.2s.2.2 0 .2c.2.1 0 0 .2 0 0-.2 0-.2.1 0a.4.4 0 0 0 .4 0c.2-.2-.2-.2-.1-.3Zm.5.5c0-.2-.2.3-.2-.1l-.2.3h.4v-.2Zm1.1.3c.1 0 .1.2.2 0 .2 0 0 .5.3.2h.2l-.2-.3v-.4l-.4-.2c-.2 0-.3-.4-.5-.3 0-.2-.2-.2-.3-.3h.1l-.2-.2v.1c-.1.2-.3 0-.3 0V5c-.2-.1-.5 0-.7-.3v-.2l-.3.4c.2-.2.2.1.3.1.1 0 0 0 0-.1h.2l-.1.2h-.1l.2.1V5l.2.1c-.2 0 0 .2 0 .3v.1h-.2l.5.3c0-.2.3 0 .3 0v-.1l.8.4s-.2 0 0 .2v.2Zm1 1.6.2-.2c0-.2-.2 0-.2-.1 0-.4-.5-.3-.5-.6h-.3V7c.1 0-.3-.2 0-.3h-.2c0 .2 0 .1-.1.1s-.3 0-.1.1l.1.3.1.2c.2 0 .2.3.2.2a.8.8 0 0 1 .8.2s0 .2-.2 0l.3.1v.2Zm.9-.8-.2-.2c-.1 0-.1 0 0 .1 0 0-.2 0 0 .2 0 0 0-.2.2-.1Zm1.2.8h-.2c-.1 0-.3-.3-.4 0 0 0 0-.4-.2-.2 0 0 .1.3.3.3-.1.2-.3-.2-.3 0h-.1c.2-.3 0-.6-.2-.8-.1 0 0 0 0 0l.1.6-.1.4a.2.2 0 0 1-.1 0c-.1-.1-.1-.3-.3-.2l.2.2.3.2V9c0 .1 0 0 .1 0s.2 0 0-.1l-.1-.3s0-.4.4-.2c0 0 .1.2.2.1l-.1-.2.2.1.3-.2Zm-.1 1 .4.2.7.6h.2l-.3-.5c-.2 0 0-.1-.1-.2l-.4-.1h.2V9h-.2l-.2-.1v-.2.2c.2 0 .2-.2.3-.3l-.1-.2c-.4 0-.3.5-.5.6Zm.3 1.2s.2-.1 0-.4v-.4c-.1 0 0 .2-.2.2v-.3c-.1-.2-.2.2-.4 0 0 .2.2.3.4.3 0 .2 0 .3.2.4-.1.2-.2 0-.3 0l-.1-.1.1.2.3.1Zm1 .6v-.1h-.1a.5.5 0 0 1-.3-.4c0-.3-.3-.2-.3-.3h-.2l.2.2a.4.4 0 0 1 0 .5l.1.1s0-.3.1-.1c.2.1.3.2.4.1Zm1.7.8-.3-.3h.1l.2.1v.1-.2l-.3-.4v-.4c0 .2-.4 0-.2.2-.2 0 0 .2 0 .2-.2-.2-.2-.4-.4-.3l-.3-.1.3.4a1.2 1.2 0 0 1 .6.8s.1-.2.3 0Zm.2.2a4 4 0 0 0-.3-.2v.4l.3-.2Zm1.4-.2v-.3h-.2v-.3h-.2c.2.1.1.3.1.4a.2.2 0 0 0 0 .2h.3Zm-.7 1.3c0-.2-.1-.2-.2-.2l-.1-.1h-.1l.3.3h.1Zm1.3 2.1v.2l.2.1-.1-.6h-.2v-.4a.2.2 0 0 0-.3 0c-.2.2-.1 0-.1-.2v-.1l-.1.1c0 .2 0 .4.2.6v.2c-.3.3.2.3.3.5v-.2c-.2 0 0 0-.1-.2v-.3l.3.3Zm.2.8v-.2s-.3-.3 0 0h.2l-.2-.3a.2.2 0 0 0-.2 0v.4h.2Zm1.7.8-.2-.5-.2-.1v.2l.4.4Zm-1 1V17h-.3l.3.4-.1.1h-.2l.4.1Zm.4.8c.3-.3-.2-.2-.2-.4h-.3c-.1 0 .1 0 0 .1l.3.2.2.1Zm.5.6-.2-.4v.4h.2Zm.2 2.3.3-.2c.2-.2-.1-.3-.1-.6l-.1.2s0-.3-.1-.1v.1l.2.2c-.3 0 0 .3-.2.3Zm1.6.4-.1.1c0 .1 0 .3.2.4.2-.1-.1-.3 0-.4l-.1-.1Zm-.8.2c0-.1.1.1 0 0l-.1-.3-.3-.2V22.2 22c.1 0 0-.1 0-.2.2 0 .2.1.3.2-.2.1 0 .2 0 .2.1 0 0 0 0 0Zm.2.8c.2-.2 0-.2-.1-.3 0-.2-.1-.2-.2-.3a.6.6 0 0 0 .3.6Zm-.8 1.2.2-.5h-.3v.5Zm.2.5h.2c.2-.1 0-.4 0-.6a.2.2 0 0 0-.1-.2h-.1v.1l.2.1-.1.3c-.2 0-.1.2-.2.3Zm.6 2c-.1-.6 0-.6.1-.4 0 0 .2-.1.1-.2 0-.3-.2 0-.3-.1v.7Zm1 .5v.4l.2-.3v-.3c.2.2.2 0 .2-.2a.3.3 0 0 0 0-.2c-.2-.2-.2.2-.4.3v.3Zm-1 .4c0-.2.2-.3 0-.5l-.2.4.2.2Zm1.2.2v.2l.1-.5s0 .3-.1.1v.2Zm-1.8.4v.1l.1-.5c-.4 0 0 .3-.1.5Zm-.2.1.1-.2-.3.1.2.1Zm2.2.5c0-.3-.1-.1-.2-.1l-.2.1c.1 0 .1 0 0 .1.2 0 .3-.2.4 0Zm-.4 3.5.1-.3-.2-.2c-.1 0 0 .1 0 .2 0 0 0 .2-.1 0-.2.1 0 .2 0 .3h.2Zm-1.1 1.2v-.5.5Zm-.6.1.3-.3v-.1l-.4.3.1.1Zm-.8 2.1c0-.2.1.2.1 0 .1-.3-.1 0-.2-.1h-.1v.2h.2Zm.2.5.1-.6-.2.5Zm.7.7.1-.3v-.2l-.3.2c.1 0 .2 0 .2.3Zm-.4.7v-.1h-.3s-.2 0 0 .1h.3Zm-1 .8v-.4l-.2.1.1.4.1-.1Zm-1.5 2.7.2-.1v-.3c-.1 0-.2 0-.2.3Zm0 .1c-.1-.1-.2.1-.4.3v.1l.5-.3Zm-.4-.3h-.4c0 .1.1.3.2.2h.2v-.2Zm-.8.3.5-.3v-.2l-.5.5Zm-1 2.5h.3l.1-.3c-.1 0-.3 0-.4.2v.1Zm-1.4.8.2-.1-.1-.1V44l-.2.1.1.3Zm-6.6 4.6h.4v-.2h-.3l-.1.2ZM139.8 44.1ZM145.4 34.9ZM132.6 2.3ZM144.4 16ZM137.1 7.9ZM146.2 35.5ZM132.7 4.6ZM146.9 24ZM130.8 4ZM141.5 13.2Z"/><path d="m140.6 12-.1-.2h.1l-.2-.3h-.1c.2.2.1.4 0 .5l.2.4h.2l.2-.2-.3-.3ZM128.8 3.4v-.1c-.1-.2-.4 0-.4-.3l-.1.2.3.2h.2Z"/><path d="m141 12.6-.1-.1c.2 0 .2 0 0 0-.3-.1.2-.2 0-.2h-.2c0 .4.3.4.4.6h.1v-.1c-.1 0 0-.4-.2-.2ZM131.7 2.2l.7.2-.7-.5h-.1l.1.3Z"/><path d="m141.6 13-.3-.2c-.1.1 0-.3-.1 0s0 .4.3.4v-.1ZM139.4 6.7c0-.3-.4-.2-.4-.4h-.2l.2.3c.1 0 .3.2.4 0ZM142.6 15l.2.1V14.8l-.2-.1v.3ZM145.5 22l.1-.2s0-.2-.2-.2.2.3 0 .4c0 0 .2.2.1 0ZM139.8 7.2l-.1-.2h-.2v.2c-.1 0 0 0 0 .1.2 0 0-.3.3-.1ZM139.6 7.3ZM143.7 16.4h-.1v.3h.3c-.1 0-.3 0-.2-.3ZM133.7 48.7h-.6c.2.2.4-.1.6 0ZM145.4 33.6v-.3l-.2.1v.3h.2ZM146.2 27.3h-.2v.2h.1v-.2ZM144 37.5v-.2l-.1.2v.2l.2-.2ZM140.3 43.7l.1-.3c-.2 0 0 .3-.2.3h.1ZM145.2 20.4c-.1 0-.3 0-.4-.2 0 .2 0 .2.2.2.1 0 0 0 0 .2.3 0 .1-.2.2-.2ZM132.2 2.2h.4-.1s-.3-.2-.3 0ZM132.6 2.3Z"/><path d="M143.7 16.3s0-.1 0 0l-.2.2h.1l.1-.2ZM143.6 16.5ZM145.4 34.9c.1 0 .1 0 0 0 0-.1 0-.1-.2 0h.2ZM145.6 32V32.6 32ZM136.5 6.7c.2 0-.1-.1 0-.2 0-.1 0-.3-.3-.2l.1.3s.1.2.2.1ZM135.5 5.6l.1.2h.3c-.1 0-.2 0-.3-.2ZM124.6 52.2c-.1-.1 0-.3.2-.2h.5c-.4-.3.5-.2.2-.4.3 0 .3-.3.5-.4 0 .2.2 0 .3.1 0 .1-.3.1 0 .2h-.4v.2h.5l-.1-.2h.5l.5-.1c.1 0 .3 0 .4-.2h.2s.2 0 0-.1h-.2V51c.4 0 .9-.1 1.2-.4 0 .1.2 0 .2 0l-.2-.1-.2.1a.3.3 0 0 1 .2-.2h.2l.8-.2s-.1 0 0-.1c0-.2 0 0 .1 0 .1-.3.1-.3.2 0h.2c0-.2.3-.1.3-.2H131l.1.3h-.5l-.3.3.7-.3h.1l.6 1.6-.2.1h-.1.2v.1l-.2.1c-.1-.4-.4 0-.5 0a1.4 1.4 0 0 0-.6 0v.2l-.4.1a6.8 6.8 0 0 1-1.7.5 2.5 2.5 0 0 1-1.3.1V53.3l-.3-.1h-.5c0 .1-.2 0-.2 0 0 .2-.1.2-.1 0-.3.2-.4 0-.4-.1 0-.2-.2-.2-.3-.2l.2-.1.2-.1H125.2l.2-.1c.2-.1 0-.3 0-.4h-.8Zm5.6-1.4h.4l.2-.1h-.5Zm-.2-.4.4-.1v-.1c0-.1 0-.1-.1 0 0 .1-.1-.1-.2 0v.2Zm-.7.5h.5s-.2 0 0 0h.2-.1v-.2c.2 0 .3-.1.1-.3h-.1l-.1.2h.1-.2l-.4.3Zm-.4.3h.5c.4-.2 0-.1 0-.1 0-.2-.2 0-.2 0h-.3ZM124.5 53.2l-.3-.4v.2l.3.2ZM29.3 3ZM24.7 1.9v-.5h.1c.3-.1.7-.2 1-.1l.2-.1c.2-.1.1 0 .2 0 .2.2-.1.2-.2.3v.1l.2.1c.4 0 .1-.5.5-.5h.2c-.1-.3.1-.3.3-.3h.1-.4l.2-.1 1.6.1h.6l.3.1v.1h-.4l.5.1h.2l-.1.1c-.4 0 0 .1 0 .2.3 0-.6.6.3.4.1 0 .4 0 .5.2h-.2v.1c.1 0 0 0 0 0h.2v.2a1 1 0 0 0-.1.6l-.2.1a.4.4 0 0 0-.4 0h-.2V3h-.4.1-.4c-.3-.2-.6 0-.8 0v-.1s-.2.2-.2 0h-.5l.2.1h-.2l-.3.1h-1c-.3.2 0 .1 0 .1l-.3.1v-.1h-.1l-.1.2-.4-.1v.1l-.2-.1.1-.2V3l-.3-.1-.1-.7h.2l-.3-.3Zm3.7 0h.6l-.3-.2-.3.2Zm-1 .2.7-.1h.2l-.3-.1c-.1.1 0-.2-.2 0l-.4.2ZM25.2 2h.3c.2.1 0 0 0 0l-.2-.1h-.1ZM24.7 1.3c.2-.1.4 0 .5-.2v.1c.2-.2-.1-.1-.2-.2l-.1.2-.1-.1h-.2v.2h.1ZM25.4 1.1c.3 0 .6 0 .4-.3 0 .2-.1.3-.4.3ZM25.8.8ZM25.8.7v.1Z"/><path d="M26.3 1 26 1c0 .2.2.1.3.2ZM24.8 3v.1ZM1 27.4ZM22.9 52.7v.3l-.3-.2h-.2l.1.4h-.1c-.2-.4-.1.2-.3 0-.1 0-.5 0-.6-.2-.1-.1-.2-.4-.5-.3v-.1c0-.2 0 0-.1 0-.2-.2-.3 0-.5 0l-.1-.1v-.1c-.2.2-.5 0-.7 0L19 52h-.3l-.2.2c-.2-.1-.5 0-.6-.3a.8.8 0 0 0-.9-.3v-.3c-.2-.2-.4-.3-.1-.4v-.1c-.3-.2-.3 0-.3.1 0 .4-.5-.2-.6 0h-.4v-.1h-.2.2v-.1l-.3-.1c-.3-.1 0 .3-.4 0l-.4-.2h.2c.1-.3-.3-.4-.4-.6v-.2l-.2.2c.1 0 0 0 0 .1l-.6-.3c0-.2-.2 0-.2 0l-.3-.4-.2-.2c-.5.4-.5-.1-.7-.3l-.5-.4c-.2 0 0-.3-.3-.3 0 0 0-.2-.1 0 0 .1-.3-.2-.3 0 0 0-.3-.1 0-.2l-.5-.5-.8-.4.1-.1.2-.1h-.2c-.2 0 0-.3-.3-.3h-.2l.2.2h.1c0 .2-.1 0-.2 0l-.5-.4c0-.4-.4-.5-.5-.8v.2s.2.2 0 .2h-.1v-.2c0-.1 0-.2-.3-.3-.2-.1-.2-.5-.5-.8a.6.6 0 0 1-.2-.4l-.4-.3-.4-.2v-.4c-.4-.2-.5-.5-.8-.7l-.7-1c-.2-.3.2 0 0-.1l-.6-.8.2.1v-.3c-.1-.2 0-.1 0-.2l.2.4c.3 0 .2.4.5.5h-.1C5 41 5 41 5 41l.2.3h.1c.1.2.2-.1.4.1l-.5-.8c-.1-.2-.3-.6-.6-.4-.1-.4-.2 0-.3-.1a.4.4 0 0 1-.1-.4l-.1-.2c-.3.1-.3-.5-.5-.5 0 0-.2 0 0-.2l-.3-.5a.4.4 0 0 0-.4-.3v-.4c.1.1.2.1.2 0l-.1-.1.2-.2.1-.1h-.1c-.1.2-.2-.2-.3-.1l-.2-.2c0-.2-.2-.4 0-.5 0 0-.1.1-.1 0l-.2-.1v.2c0-.2-.2 0-.2-.2v-.1.1l.2-.4-.1-.1-.2-.1H2v-.2c.3-.2-.2-.3-.1-.5h-.1v-.2H2l.1.3V35c-.2-.2 0-.5 0-.7l-.1-.2v.2l-.2-.4h-.2v-.1c0-.2 0-.4.1-.3v-.2s-.1-.1-.1 0h-.2V33h.1c0 .1 0 0 0 0h.2c0-.3-.4-.5-.3-.7V32l-.2.2c0 .2 0 0-.1 0l-.1-.1a.2.2 0 0 1 0-.2h.4l-.3-.1s-.1-.2 0-.2v-.2l.1.2.1.1.2-.2h-.1l-.2-.2c.2 0 0-.3.1-.3l.1-.1H1l.1-.5v-.2s-.1-.2-.1 0v-.3l-.1-.2c-.6 0-.1-.7-.4-.9h.2l.2.2c-.3-.1 0-.8-.3-.7a.1.1 0 0 1-.1 0v-.5.2c.1.2.2.2.3.1H1L.7 28c.2-.1.2-.1 0-.4 0-.2 0-.1.2-.1H1L1 28h.3v.2-.3l-.1-.1c0-.3.1 0 .2-.1 0-.1-.2 0 0-.1l.1-.3c0-.3 0-.4-.2-.3l-.2.2v.1h.1l.2-.2v.1l-.2.2s-.3-.2-.3.2v-.3c.1-.4-.2-.3-.3-.4.1 0 0-.3 0-.4.2-.2 0-.8.4-.7-.4-.2.2-.1 0-.2v-.1c-.1.3-.2-.3-.3 0L1 25v-.7c0-.3 0 .2-.2-.1-.1-.5.3-.3.3-.6.1.1 0-.2.1-.2 0-.2.1-.1 0-.4l.2-.7c0-.3-.1.1-.2 0l.1-.5c.2-.2.3-.3.2-.5V21v.1c.2 0 .4-.2.4-.3 0-.2.3 0 .2-.2-.1-.1-.3 0-.4 0 0-.2.1-.3 0-.4l.1-.2a.7.7 0 0 1 .4-.6c-.2-.2.1-.4.1-.7.3-.4.3-1 .5-1.4l.3-.6v-.5h-.1c0-.1 0-.4.2-.3h.1l-.1-.1.1-.1s.2 0 .1.1c0 .3 0 .3.1.1l.1-.2.5-1 .4-.7c-.3-.1.1-.3 0-.4.4.1.4-.3.6-.5v-.1h-.1l-.1.1V13h.5-.2v-.1c.3 0 .3 0 .3-.3l.2-.3.5-1H6a.6.6 0 0 1 .3-.5v.2l-.1.4-.1.1c.3 0 .2-.2.3-.2 0-.1.3-.2.1-.2l.1-.2c.3 0 .5-.3.6-.5l.6-.6c.2 0 .3-.4.4-.6-.2 0 0-.2 0-.2.2-.2 0 .3.2 0 .2-.2 0-.3-.3-.3h.1v-.1l-.1-.1h.3c.2-.1 0-.1 0-.2h.2c-.2 0 .1-.3 0-.2h-.1c.3.1.3-.3.5-.3s.4-.5.6-.6c.3-.1.4-.4.7-.6h.4c.2 0 0-.3.2-.4.3-.3 0 .1.2 0 .3-.3 0 .1 0 0h.4v-.2l-.1-.1.7-.4c.4 0 .5-.1.5-.4.3 0 .3-.3.6-.3l.7-.5h.1c-.1 0 .3 0 0 .1v.1l.2-.3.5-.2.3-.1 1-.6 1.1-.4.7-.2.6-.3A4 4 0 0 1 20 2l.8-.1c.3 0 .3-.3.5-.2.3.1.6-.3 1-.1.1 0 .2.2.4.1h.9l.6.2c0-.3.3-.2.5-.1v.5a.3.3 0 0 0-.3 0c-.3.1-.7-.2-1 0l-.4.2h.4v.2l.8-.1.1-.1.2.2h.1c0-.3 0-.2.1-.2l.1.7s0 .1 0 0v.2c-.1.1-.4.1-.3.3v.1c0-.2-.2 0-.2 0l-.1-.3c-.2 0-.2 0-.2.2l-.3.1-.2.2c-.1 0-.3.1-.4 0-.2 0 0 .3-.2 0l-.3.2c-.2.2 0-.2-.2-.1 0-.1 0-.2-.1 0H22l.1-.1-.2-.1-1 .1s-.1 0 0 0h.1c.2 0 .4 0 .3.1l-.3.2c-.1.3-.6 0-.6.3h.5l-.6.2c-.3.1 0-.2-.2-.1 0 0 0 .2-.2.2l-.2.1v-.2l-.2.1c-.3 0-.4.2-.5.4-.3.2-1.4.6-1.7.4-.3-.2 0 0-.1 0a.2.2 0 0 0-.3.3c0 .3-.2.1-.3.2-.1.2-.3.2-.5.3-.3-.3-.2.4-.5.2 0 .2-.5 0-.4.3 0-.3-.3 0-.5 0h.1v-.2h-.3l.1.1-.4.3c-.2 0-.2-.1 0-.3h-.1l-.4.2.2.2c0 .2 0 .5-.3.4l-.2.2V7.5l-.3.1h.2c-.2 0-.3.2-.5.4v.1l-.2.5-.1.2c-.1-.2-.3.2-.3 0H12s.1.1 0 .1c0 .2-.2.3-.4.4v-.1l-.2-.1c0 .2-.2 0-.3.2v.4l-.2.4c-.2 0-.2.3-.4.3h-.1v-.1h.2v-.1h-.1V10l.2-.1v-.2l-.3.1-.1.1c-.1 0 0 0 0-.1h-.2l-.5.7c.3 0 .3.2.4.2h-.2c0-.1 0 0 0 0s-.1 0 0 0a.4.4 0 0 0 0 .2l-.8.4c.3.4-.1.2-.2.3-.3.2 0 .1 0 .2 0 .3-.3.4-.4.7l-.5.7-.2.1.2-.2h-.2v.3c-.1.2-.3.2-.3.2-.2 0 0 .2-.1.3v-.2h-.2v.5c-.3.1 0 0-.1 0H7l-.2.2H6.5l-.1.3v-.2l-.2.3c0-.2.2.5.3 0 0 0 0-.1 0 0v.1c.1.2.4-.3.4 0 0 .2-.2.2-.3.1v.2h-.2v.1l.2.1-.2.2c-.1.1-.3.3-.1.5l-.1.3H6l.1-.2c0-.1 0-.4-.2-.3-.1 0 0 0 0 .1.2.1 0 .3 0 .5s0 .3.1 0v.3h-.2a.4.4 0 0 1-.3.5h.1v-.2h-.2v.3s0-.2-.1 0l-.2-.3-.1.2h.2l.2.6c0 .2-.2.1-.2 0 .2.2-.3.5 0 .7-.2 0 0 .4-.3.2v.3l-.3 1-.2.6c0 .6-.2 1.2-.5 1.7-.1.2 0 .6 0 .8-.1.3 0 .5-.2.6-.5.3 0 .5 0 .8l-.1.8a.9.9 0 0 1-.4.6h.2v.3h-.1l.1.1c.3 0 0 .3.2.3v.7c0 .2-.2 0-.2.1l.1.9v.5c.2.2-.2 0-.1.2l.1.2s0-.3.1-.2v1h-.1.2l-.1.2s-.2 0-.1.1l.2.2v.2h-.2v-.2.6-.2c-.1 0 0 0 0-.2.1 0 .3.2.2.3v.3c0 .2 0 0 .2 0 .2.3-.2.4 0 .5l-.1.1.1.2c.2 0 .3.2.1.4l.3.6c0 .3.2.6 0 .8.2 0 .1.2.1.4l.3.4c0 .5.2.9.4 1.3.1.2 0 .5.3.7v.2l.2.5c0 .2.1 0 .2.2l.7 1.3.4.6.3.6v.2c.4 0 .2.5.6.6v.3a.5.5 0 0 0 .3.4l.9 1a5.2 5.2 0 0 0 .4.6v.2l.1-.2v.3h.2l.4.3.5.6 1.1 1 1 .8.6.4.3.3c.2 0 .2.2.3.3l.6.3.5.3.4.1c.2 0-.1.2.1.2.5.1 1 .3 1.3.6.1.2.2.2.4.2v.1l.7.2 1 .4 1.1.4 1.1.4c0 .2.3 0 .3.1h.1l.5.2h1.1a.1.1 0 0 0 0 .1.1.1 0 0 0 .1 0l-.3 1.7ZM15.8 6l-.4.1v.2h.4c.3-.1-.3 0 0-.3ZM19 3.7H19c-.1 0-.3.2-.4.1h-.1.5Zm2.5-1.4-.2-.1-.2.2h.4Zm1 .2-.2.2c.2.1.5-.3.7-.1h.1c-.2-.3-.5 0-.7-.1Zm-.2-.5H22.7l-.3-.2V2h.1c.1 0-.2 0 0 .1Zm-.4.3-.2.2.7-.2H22Zm-2-.2h.4-.2l.1-.1h1.1c.2 0 .3 0 .4-.3h-.2l-.2.2h-1.1c-.1 0 0 .1-.2 0v.2Zm-2 .6.5-.1a.1.1 0 0 0 0-.1l-.2-.1c.3.2-.1.2-.2.2Zm.3.7h-.1v.2h.2c-.4.2-.5.2-.3-.1H18l-.1.2s0 .2.3 0h.4s.3-.1.2-.2c.4 0 .7-.4 1.1-.3l.2-.2-.1-.2h.6v-.1H20s.3 0 .1-.1c.2 0 .2-.2 0-.2h-.3l.3-.2H20l-.3.2c-.2.3.3.1.3.2-.4 0-.2.3-.5.5l-.6.2a.1.1 0 0 1-.1 0c.4 0 .4-.4.7-.4h-.2l-.1-.1c.1 0 .2-.2 0-.1v-.2l-.2-.1c0 .2 0 .3.2.4-.2 0 0 .2-.2.2l-.4.1v.1c.1.2-.3 0-.2.2h-.1Zm-.9-.2h.2L18 3c.1 0-.2.3.2.3 0-.1-.2-.2 0-.2V3s0 .2-.2 0h-.1v-.2l-.3.4Zm-.7.4.2-.2.1-.2c.2.2.2 0 .3 0l-.2-.1s-.3 0-.2-.2h.1-.2c-.2.1.1.1 0 .2.1.1 0 .1 0 .2a.4.4 0 0 0-.4.3c0 .1.3-.2.3 0Zm-.8.2c.1 0-.1-.3.2-.2l-.1-.3-.2.4v.1Zm-1 1h-.2c0 .2-.5 0-.3.3v.2h.7c.2 0 .3 0 .4-.2.2-.2.6 0 .6-.4h.7v-.2c-.2-.1.1-.1 0-.2h.1v.1c.3-.1.4-.5.8-.5h.2l-.1-.3c0 .2-.3 0-.3.2l-.2.2v-.2l.1-.1-.2.1V4h-.1c0-.2-.2-.1-.3-.2l.2-.2-.8.2V4c.2 0-.2.2 0 .3v.1l-1 .5c0-.1.2-.2 0-.1h-.3Zm-2.2.4.2.2.1-.1c.4.1.6-.4.9-.4l.2-.2h.1c.1.2.4-.2.5 0-.2 0 0-.2 0-.3 0 0 .1-.2 0-.1h-.4l-.3.1a.3.3 0 0 1-.4.1c0 .3-.2.6-.5.8 0 0-.2-.1 0-.2h.2V5H13l-.2.3h-.2Zm.5 1.1s.2 0 .3-.2h-.1c-.2 0 0-.2-.2 0-.1 0 0 0 0 .2Zm-1.2 1c.1-.2.5-.3.2-.5 0 0 .3 0 .2-.2a.4.4 0 0 0-.4.2c-.2-.1.4-.2.1-.3h.1c.2.2.6 0 .9-.1 0-.1 0 0 0 0a4 4 0 0 1-.7 0l-.4-.2.1-.1c.1-.1.3 0 .3-.2L12 6l-.3.3c0-.2-.3 0-.3-.2v.3s0 .1.1 0v-.1h.3s.5.1.1.4c0 0-.2 0-.2.2h.3-.2c0 .2 0 .3.2.4Zm-1-.1-.4.4c-.3.2-.4.6-.7.7l-.1.2v.1l.6-.4c0-.1.1 0 .2 0V8l.2-.3V8l.1-.1v-.1l.2-.3h.2H11c0 .2.2.3.3.4l.2-.2c0-.3-.4-.3-.5-.5Zm-1.5.3s.1.2.4 0h.4c.2-.2-.2 0-.1-.2h.3c.3-.1-.1-.2.2-.4a.5.5 0 0 0-.6.4.3.3 0 0 0-.4.2h-.1c-.2-.1.2-.2.2-.3l.1-.2-.3.2-.1.3Zm-.8 1.1h.1a.8.8 0 0 1 .5-.4c.3 0 .2-.3.3-.4v-.2l-.2.3A.5.5 0 0 1 9 8V8l-.1.1c-.1.2.3 0 0 .2 0 0-.2.3-.1.4Zm-.9 2v.1l.3-.3h.1l-.1.2-.1.1h.2c0-.2.3-.3.4-.5l.3-.1v.1-.2c0 .1.1-.3-.1 0 0-.3-.3 0-.2-.1.1-.1.4-.2.3-.4l.1-.3c-.4.2-.4.3-.4.4l-.8.8c-.1 0 .2 0 0 .3Zm-.1.3.2-.3h-.4l.2.3Zm.5 1.4.3-.1V12l.3-.2v-.1c-.2.2-.3.2-.4.1a.2.2 0 0 0-.3.2v.2Zm-1.5-.2c.3-.1.2-.2.2-.3l.1-.2c-.2 0-.2.2-.3.3v.2Zm-1.5 2.4h-.1v.3l.4-.4v-.2l.3-.3v-.2c-.4-.1 0-.2 0-.3H6c-.1 0-.2-.1-.2 0l-.5.4-.1.2c-.5 0-.2.4-.4.6H5v-.1c-.1-.2 0-.1.1-.2v-.1l.3-.1v.4h-.2Zm-.6.6s.3-.5.2 0v.2l.2-.4a.2.2 0 0 0-.1-.2c-.2 0-.3.1-.3.4Zm.4 2 .3-.5v-.2l-.2.2-.1.5Zm-1.3 0 .5-.4-.2-.4-.2.6h-.2v-.1h-.2l.3.4Zm-.4 1.1c.4 0 0-.4.2-.5l-.3-.3c-.1 0 .1.2 0 .2V18.2Zm0 1v-.7l-.2.4v.2h.1Zm-1 2.3h.2c.3-.1.1-.5.2-.8l-.2.2s.2-.2 0-.1v.4c-.2-.2-.1.3-.3.2Zm1.1 1V23.2c.2 0 0-.3.1-.4l-.1-.1Zm-.8 0c0-.2.1.2 0 0V22a3 3 0 0 0-.2-.3l-.2.4v.3l.2-.3V22l.2.3c-.2 0 0 .2 0 .2 0 .1 0 0 0 0Zm0 1c.2-.3 0-.3 0-.5l-.1-.3a.7.7 0 0 0 0 .7Zm-1.2 1 .3-.6c-.1.2-.2 0-.2 0l-.1.4v.2Zm0 .6.2.1c.3-.1.1-.5.3-.7a.3.3 0 0 0-.1-.3s-.2-.1-.2 0l.1.2.1.1-.1.3c-.2 0-.2.2-.2.3Zm.5 2.4c0-.7 0-.6.1-.5l.2-.1c0-.3-.3 0-.4-.2-.2.1 0 .3 0 .8Zm1 .5v.5l.2-.3v-.3c.2.2.1-.1.2-.2v-.2c-.2-.2-.2.2-.4.3v.2Zm-1 .6c0-.2.2-.4 0-.6v-.1l-.1.6H2Zm1.2 0v.3l.1-.4c0-.1 0 .2-.1 0v.2Zm-1.8.7v.1l.1-.6c-.4 0 0 .4 0 .5Zm-.2.2.1-.3V29l-.3.3H1Zm2.3.2c0-.3-.2-.1-.2-.1-.2 0-.2 0-.2.2.1 0 .1 0 0 0 .2 0 .2-.2.4 0Zm.6 3.6V33l-.3-.2s.1.1 0 .2c0 0 0 .2 0 0-.2.3 0 .3.1.3H4Zm-.4 1.6v-.2l-.2-.3-.1.2.2.3Zm-.5.4.1-.4-.1-.2-.1.5.1.1Zm.7 2.5c0-.2.3 0 .2 0-.2-.4-.2 0-.3 0l.1.2v-.2Zm.5.3-.3-.6.2.5h.1Zm1 0v-.3l-.2-.1v.4c0-.1 0-.2.2 0Zm.3.8h-.3l.1.3.2-.3Zm.1 1.3-.4-.1v.1l.5.2v-.2Zm2 3v-.3l-.4-.2a.4.4 0 0 0 .3.4Zm.2-.2c-.2.2 0 .4.1.6h.1c0-.1 0-.3-.2-.5Zm-.5.4v.4h.2v-.3h-.2Zm.2 1-.3-.7h-.2l.4.6Zm2.7 1.5-.1-.3h-.3s0 .2.2.3h.2Zm1 1.5s-.2 0-.2-.2v.2h-.3l.2.2s.2 0 .2-.2Zm8.4 4.7-.4-.3H19c0 .2.2.3.3.3h.2ZM11 48ZM3 37.5ZM20.9 4.4ZM4.5 15v.1ZM13 5.3ZM19 3.8ZM21.4 1.9ZM6.3 10.6Z"/><path d="m7.7 9.1.1-.2v.2h.1c0-.2.2-.3.2-.3h.1v-.1H8c-.2.2-.4.2-.5.2-.2 0-.3.2-.4.3v.1l.1.2.4-.4ZM23.8 1.3h.1c.2.2.5-.1.6.1v-.2H24l-.2.1Z"/><path d="M7 9.7v-.1c0 .2 0 .3.1 0 .1-.2.1.2.2 0l-.1-.3c-.4 0-.4.5-.6.7h.1c0-.1.4 0 .2-.3ZM21.6 4 21 4h.9V4h-.3ZM6.3 10.6ZM6.5 10.6c0-.1.3-.3.2-.4 0-.1.3 0 0-.2-.3 0-.4.3-.4.6h.2ZM13.4 7.8c.3.2.3-.2.5-.2l.1-.2c-.1 0-.3 0-.4.2l-.2.2ZM4.6 12.8v.2l.3-.2H5v-.3l-.4.3ZM1.3 21.6l.1-.1v-.3c-.3 0 0 .4-.3.4 0 0 0 .3.2 0ZM12.8 8.1h.2v-.2h-.1c0-.2 0-.1-.1-.1V8s.2 0 0 .2ZM12.8 8v-.1ZM3.8 14.8h-.2l-.2.1c0 .2.2.2.2.2s0-.2.2-.3ZM19.3 52.2l.5.4c0-.2-.4-.1-.5-.4ZM2.2 36.1l-.3-.3v.2l.3.3v-.2ZM.7 28.3H.5v.4l.2-.1v-.3ZM4.4 40.8l-.2-.1.1.3h.2l-.1-.2ZM10.5 47.4l-.4-.2c0 .2.3.1.3.3h.1v-.1ZM1.8 19.7c0-.1-.3-.1-.2-.4v.3c.1 0 0 .1 0 .2 0 .2.1-.2.2-.1ZM21.3 4.2l-.4.2h.1c.1 0 .4 0 .3-.2ZM20.9 4.4ZM3.9 14.7v-.2l-.3.1v.1H4ZM3.6 14.7ZM3 37.4c.1 0 .1 0 0 0H3v.2l.1-.1ZM3 37.5ZM1.5 34.2v.5l.2.2-.2-.6ZM14.5 5c0 .2.2 0 .3 0 0 .2.3.2.3 0l-.3-.1h-.3ZM16.1 4.6c0-.1 0 0-.2 0l-.2.2.4-.1v-.1ZM30.8 52.4c.1.1 0 .3-.3.2H30c.4.3-.7.3-.2.5-.4 0-.4.3-.7.3 0-.2-.3 0-.3-.1 0 0 .3-.1 0-.2h.5l-.6-.1v.1h-1.1l-.5.1h-.2s-.3 0-.1.1l.2.1h.1-.1l-1.5.1h-.3l.2.1h.3a.3.3 0 0 1-.3.1H25l-1-.2.1.1c-.1.2-.2 0-.2 0-.3.1-.3.1-.3-.1l-.2-.1c-.1 0-.3-.2-.5 0l-.2-.2v-.3l.6.2h.5l-1-.3.2-1.7h.4-.2.3c-.1.3.3 0 .5.2l.4.2h.2v-.1H27.7l.6.1.2-.2.2.1h.7c.1-.2.1-.2.2 0 .3-.1.4 0 .4.2 0 .1.1.2.3.1l-.2.2h-.3l.2.1h.2-.2c-.3.2 0 .3-.1.5h.4c.2-.1.5-.2.6 0Zm-6.7.3-.5-.2h-.1l.4.3h.2Zm0 .5h-.5c0 .1 0 .1.1 0 .1 0 0 .2.2.1l.2-.1Zm1-.2h-.2l-.3-.1s.2 0 0-.1l-.2-.1v.2c-.3 0-.4 0-.2.3h.3l-.1-.2h.8Zm.6 0-.6-.3c-.4 0 0 0 0 .1l.2.1h.4ZM30.8 51.4l.4.4v-.2l-.4-.2ZM123.5 52.2v.1c-.1 0 0 0 0 0h-.2s0-.1 0 0c-.1 0 0 0 0 0V52 52.4s.1-.1.2 0Zm-.2 0Zm0 0Zm.1 0ZM123.4 52.4ZM123.4 52.4ZM126.5 52v-.1ZM124.3 52.3v.1ZM123.5 52.3ZM124.3 52.3c0 .1 0 0 0 0ZM123.6 51.9ZM124.4 52.3ZM124 51.8ZM124.5 52.3ZM124.9 52.2ZM124 51.8ZM124.6 52.3ZM126.6 52ZM125.2 52.2ZM126.1 52ZM124.8 52.2c0 .1 0 0 0 0ZM123.6 51.9ZM124.6 52.2v.1ZM125.6 52ZM127 51.7v.1h-.1v.1s0 .1 0 0c0 .1 0 0-.1 0v-.4c0 .1 0 0 0 0 0 .1 0 0 0 0h.1v.2h.2Zm-.2.1Zm0 0c0 .1 0 0 0 0s0 .1 0 0c0 0 0 .1 0 0Zm0 0c0 .1 0 0 0 0Zm0 0ZM127 51.5ZM124.2 51.3ZM126 52.3l.1.5c-.2 0-.3.2-.4.1h-.1c0 .2 0 0 0 0-.2-.2 0-.2 0-.2v-.1l-.1-.2v.1c-.2 0 0 .5-.2.5 0 .2-.1.2-.2.3 0-.1 0 0 0 0h.1v.1l-.7-.1H124.2v-.1h.1c0-.1-.1-.1-.2 0V53c-.1 0 0-.1 0-.1.1 0 0-.1 0-.1-.2 0 .2-.7-.2-.4l-.2-.1.1-.2h-.1V51.4h.2l.1-.1v.1h.1c0-.1 0 0 .1 0l.1-.1c.1.2.2 0 .3 0v.1s.1-.2.1 0h.2v-.1l.1-.1c.1-.2.2 0 .3 0h.1c.1-.2 0-.1 0-.1l.1-.1v.1l.1-.1s.1-.1.2 0v-.1.5h.2V52.2s0-.1 0 0V52v.3Zm-1.4 0h-.1l-.1.1v.1l.2-.2Zm.4-.2-.3.1s0 .3.1 0l.2-.1Zm.9.1c0-.1-.1 0-.2 0 0-.1 0 0 0 0l.1.1v-.1ZM126.1 53s-.2-.1-.2 0l.1.2V53v.1h.2V53h-.1Z"/><path d="M125.8 53c-.1 0-.2 0 0 .3v-.2ZM125.7 53.3ZM125.5 53.1l.1.2-.1-.2ZM129 51.5c.2.1.1.3 0 .2h-.1c.2.3-.3.2 0 .5-.2 0-.2.3-.3.3 0-.2 0 0-.1 0v-.3h.1V52h-.2v.1l-.2.1a.6.6 0 0 0-.4.1s0 .1-.1 0c0 0-.1 0 0 .1h.1v.1a.5.5 0 0 0-.6.3c0-.1 0-.2 0 0v.1l.2-.1-.1.2h-.5c0 .2 0 0-.1 0 0 .2 0 .2-.1 0h-.1c0 .1-.1 0-.2 0l-.2-.4.3.1.2-.1h-.4l-.3-1.7h.1v-.1c0 .3.2 0 .3 0 0 .2 0 .1.2.2V51h.2l.5-.2h.1a.6.6 0 0 1 .6 0v-.2h.3c0-.2 0-.2.1 0 .1-.2.2 0 .3.1l.1.2-.1.2h.1c-.1.2 0 .3 0 .4h.4Zm-2.5 1-.1-.2h-.1l.2.2Zm.1.4h-.1c0 .2 0 .2 0 0 0 0 0 .2.1.1v-.2Zm.4-.4h-.2v-.1l-.1-.1v.5h.1v-.1l.2-.2Zm.2-.2h-.3c-.1 0 0 0 0 0 0 .2.1 0 .1.1h.2ZM128.9 50.6l.2.3v-.2l-.2-.1ZM121 1ZM121.8 2v.5s0 .2 0 0v.1h-.1V2v.5c-.1 0-.1 0 0 0l-.1.3V3h-.2v-.2h-.1V2.4s0-.7-.1-.3L121 2v-.2.1-.2a5.5 5.5 0 0 0-.1-.8V1 .9h.1V1 .9c.1.2.1 0 .2 0 0 .1 0 0 0 0s0-.2 0 0V.8h.1c0-.2 0 0 .1 0V.6l.1-.1s0-.1.1 0v.5l.1.7V2Zm-.5 0v.1V2Zm.2-.3-.1.2s0 .3 0 0v-.2Zm.3.2c0-.1 0 0 0 0-.1-.2 0 0 0 0V2 2ZM121.9 2.6V3v-.2.1-.2ZM121.8 2.8V3v-.2ZM121.8 3.1ZM121.7 2.8V3v-.1ZM126.7 3.3ZM130.5 4.4v-.1ZM128 3.6ZM128 3.6ZM124.2 3.2V3v.4h.1v-.3ZM122 2.7v-.2.2ZM124.3 3.3c0-.1 0-.2 0 0v-.1.2c0 .3 0 0 0 0v-.1s0-.3 0 0ZM122.3.5V.3v.2ZM124.5 3.1v.1c-.1.1 0-.2-.1 0 0 .3 0 .2 0 0ZM123.7.3c0-.2 0 .1 0 0v.2-.2ZM124.8 3.4V3v.4ZM126 3.4v-.2l-.1.2c0 .2 0-.1 0 0ZM123.8.5V.3v.4V.5ZM125.1 3.1v.2s0 .1 0 0v-.2s0 .2 0 0ZM130.6 4.9l-.1.2c.1-.2 0 0 0-.2ZM127.7 3.8v.1-.1ZM126.8 3.5V3.8v-.2ZM128.3 4v.1V4ZM129.5 4.2h-.1v.1-.1ZM125.7 3.3v.3-.1c0-.2 0 0 0 0v-.2ZM122.3.4V.3s0-.1 0 0ZM125 3v.4V3ZM128 3.5v.2c0 .1 0 0 0 0v-.1ZM128 3.6ZM127.4 3.9h.1ZM123.3 2.2V2c0-.2 0-.3 0 0V2s0 .1 0 0ZM123 1.8h.1ZM132.3 5l-.1.1c-.2.2-.2 0-.3.3l-.3.1c.1-.1 0 0 0 0l.2-.2V5v.2h-.1s0-.2-.1-.1c-.1 0 0 0 0 0s0-.1 0 0h-.1s0 .1 0 0h-.3v.2c-.1 0 0 0 0 0l-.2-.1v.1c-.1.1 0 0 0 0-.1 0-.1 0 0-.1-.1 0 0-.2-.1 0v-.1l.2-.3V5h.1v-.1h-.1l1-1.5c-.1.2 0 0 0 .1v.1h.1v-.1h.1l.2.1c0 .1 0 0 0 0l.2.3.1-.2v.1s0 .2 0 0V4c.1 0 .1 0 0 0v.3l-.1.2h-.1l-.1.1-.3.4s.2 0 .1.1Zm-.9-.3v-.1.2Zm-.2.4h-.1c0 .1 0 .1 0 0 0 0-.1.2 0 .1V5Zm.2-.1v-.1l.1-.2v.1h-.1l-.2.3V5h.2Zm.2-.1v-.2c-.1.2 0 0 0 .2ZM133 4.3h-.1l-.2.3.1-.1.1-.2ZM8.9 7.7ZM11 7.7l.3.4c-.2 0-.2.3-.3.3 0 .2-.1 0-.1 0-.2-.1-.1-.2 0-.2l-.1-.1-.2-.1.1.5v.1c.1.2 0 .2 0 .2 0 .1 0 0 0 0h.1V9l-.6.2-.1.2H10l-.1-.1h.1V9h-.2v.1h-.1V9c.1 0 0 0 0-.1-.1.1-.3-.7-.4-.2h-.2V8.4s-.1 0 0 0v.1H9l-.2-.1-.3-.6v-.1l.1-.1v-.1h.1v.1-.1l.2-.1v.1-.1s0-.1 0 0c.3 0 .3-.1.3-.2h.1v.1s0-.3.1 0l.2-.2h-.1V7c0-.2.3 0 .4-.1v-.1c.1-.2 0 0 0-.1v-.1h.1v-.1s.1-.2.2 0v-.1h.1v.2l.2.1v.1h.1l.4.6h-.1c0 .1 0 .2.2.3Zm-1.2.6h-.1v.2h.1v-.2ZM10 8l-.1.3s.2.2.1 0v-.3Zm.8-.3c-.2 0 0 .2 0 .1ZM11.3 8.2s-.1 0 0 .2l-.1-.1c0 .2.1 0 .2.1v-.1c0-.1 0 0 0 0h.1l-.1-.2v.1Z"/><path d="M11.2 8.4c-.1 0-.2.1 0 .3 0-.1-.1-.2 0-.2ZM11.2 8.7ZM11.3 8.8ZM10.9 8.6l.2.1c-.1-.2-.1-.1-.2 0ZM10.5 6.6ZM24.7 3.3ZM38.3 2.4v.3l-.2-.2V3c-.1-.4-.1.2-.2 0 0 0-.2.1-.2-.1 0-.1 0-.3-.2-.2v-.1c0-.1 0 0 0 0 0-.1-.2 0-.2 0-.1.2-.3 0-.3 0l-.2-.1h-.1l-.1.3h-.3c0-.3-.2-.3-.3 0v-.3a.3.3 0 0 1 0-.3l-.1-.1c-.2-.1-.1.1-.1.2 0 .4-.2 0-.2.3 0 0-.1-.1-.2 0v-.1h-.1s0 .3-.1.2H35v-.2l-.1-.3v-.1l-.1.2v.1h-.3s0 .1 0 0h-.2c-.2.5-.3 0-.4 0 0-.1-.1-.1-.2 0 0 0 0-.2-.2-.1 0 .1-.1 0 0 .2 0 0-.2.1-.1 0l-.3-.2-.3.2V2.2c0 .3-.1-.2-.2 0v.2s0-.1.1 0c0 .1 0 0 0 0s-.2.2-.3 0h-.3s.1 0 0 .2c0 0 0-.2-.2 0 0 0-.1-.3-.3-.2h-.2c0-.2 0 0-.1 0l-.2.1v-.1H31c-.1.1-.3 0-.4.2h-.4c-.2 0 0 0 0 0l-.4.1v-.2l-.1-.1h.1c0-.3.2 0 .3-.2v.1h.1v.1l.1-.4H30c-.1 0-.3 0-.3.4-.1 0 0 .1 0 .2h-.2c0-.2 0 0 0 0 0 .2-.3 0-.3.2-.1-.2-.2-.1-.3-.1l-.1.3-.1-.2v-.1h-.1v-.2l-.1-.2v.4h-.1s-.2.1-.2 0L28 3h.1l-.1.2V3l-.2-.2V3.2h-.2c0-.4 0 0-.2 0V3h.1c0-.2 0-.2-.1-.1s-.2-.1-.3-.1V3h-.1v.2c-.1 0-.2 0-.2-.2h-.1V3.1 3l-.1-.2s-.1.3-.2.2c-.1-.1 0 0-.1 0V3.4l-.1-.3v.2s0 .1 0 0h-.1V3v.2C26 3 26 3.2 26 3v.2H25.6v.1h-.1s-.1 0 0 0c0 .6-.3.2-.3.4V3.4c0 .2-.3-.1-.2.3l-.1.1v-.5.2s-.1-.2-.2 0V3.2h.1v-.3c-.1 0 0 .1 0 .1-.2 0 0-.1-.2-.2 0 0 0 .2 0 0l-.1-.1c-.1 0-.2.1 0 .3V3v-.2.1c0 .1 0 .3.2.3 0 .1 0 0-.1 0-.2 0 0 .2 0 .3h-.2c-.1-.1-.3.1-.4-.2 0 .4 0-.2 0 0v.3h-.2a.3.3 0 0 0-.2 0c-.1 0 0 0 0 .2-.1.2-.2-.2-.2-.2 0-.1-.1 0-.1 0h-.5c0 .1.1.1 0 .2 0 0 0 .1-.1 0l-.2.1-.2-.3s-.1-.2-.1 0V4h-.1l-.3-.1c0 .2-.2 0-.2.1l-.6.2a.3.3 0 0 0-.2 0v.4c-.1 0-.2.1-.2 0v-.1.1h-.1V4.4c0 .2 0 0-.1 0l-.4.2h-.3c.2.4 0 .2 0 .3-.2-.4-.2-.1-.3-.2V5l-.2-.3v.2c0-.1 0-.1-.1 0h-.1l-.3.3v.2c0 .1 0 .1-.1 0v-.2h.1V5c-.1-.2-.1 0-.2 0 0 0-.1-.1 0 0v.1c-.3-.3-.5.1-.7 0l-.2.3c0 .1 0-.1 0 0-.2 0 0 .2 0 .3l.1.1v.2l-.2-.2s0 .1 0 0V6s-.1 0 0 .1c-.1-.2-.1.1-.2 0l-.3.2h-.5v.2s0-.2-.1-.1h-.1l-.1-.1v.1l.1.1h-.3c-.1 0-.2 0-.2.2-.2-.2 0 .2-.2 0l-.3.2s-.2-.1 0-.1h-.1V7H15l-.5.2-.3.2h-.3s-.2 0-.2.2a.7.7 0 0 1-.6.2h-.3l-.1.2c-.2-.2-.1.2-.4 0 0 0-.1-.1-.2 0H11.8c-.1 0-.3 0-.4-.2.2.4 0 .3 0 .2l-.3-.5s0 .1 0 0h.5v-.2c0-.1 0 0 0 0l-.2-.1v-.1s-.2 0-.2.2H11c0 .2 0 .1 0 0l-.4-.5v-.5l-.1-.1c0 .2 0 0 .1 0l.1.2V6c.1 0 0-.1 0-.2h.3c0 .1-.1-.2 0 0v-.1c.1-.3.2.1.3 0 0 .1 0 .2 0 0h.1V6l.1.1h.4v-.1h-.2v-.3c0-.2.4.1.3-.2h-.2l.2-.1c0-.1 0 .1.1 0v-.1h.1v.1c.3 0 .2-.2.3-.4 0-.2.6-.2.7 0 .2.2 0-.1 0 0 .2 0 .2-.2.2-.2-.1-.3 0 0 0-.1 0-.2.2-.2.3-.2.2.3 0-.3.2 0 0-.3.3.1.2-.2 0 .2.2 0 .3.2v.2-.1l.2-.1a.2.2 0 0 1 0 .2h.2v-.2l-.1-.1c0-.1 0-.3.2-.1V4v.2h.2-.1l.2-.1V4l.1-.4c.1 0 .2-.1.2 0l.1.2v-.2l.2-.2v.2l.1.1v-.1s.2.1.2 0v-.3s0-.3.1-.2c.1 0 .1-.1.2 0V3.6h.2c0 .2 0 0 0 0v.1c.1 0 .2 0 .3-.2l-.2-.3h.1v.1V3l.4.1c-.1-.4.1 0 .2 0v-.2c0-.2.2-.2.3-.2 0-.1.1-.2.3-.2v.2l.2-.2c.2.2.1-.1.2 0v.1h.1v-.2c.2.1 0 0 0 .1.1 0 .1.1.1 0h.2v.2h.2v.1h.1s0-.4-.1-.2v-.1c0-.2-.3-.1-.2-.3l.2.1v-.1l.1.1c0 .1 0 0 0 0V2h.1c.1 0 .2.1.2-.1v-.1h.2c0 .1 0 0-.1 0V2c0 .1-.1.2 0 .4v-.2l.1-.2s.2 0 0 0v-.1l.1-.1V2h.1c0-.2.1-.2.2 0v.2V2h.1v.2h.1V1.6l.1.2c0-.3.3 0 .2-.3.1.2.2-.1.2 0h.5l.3-.2a.7.7 0 0 1 .8 0l.3-.2c.1 0 .1-.2.2 0 .2.3.2-.2.3-.1l.4-.1c.1 0 .2 0 .3.2V.8h.1V1 1c0-.3.2 0 .1-.2h.4c.2.2.3 0 .4 0 0 0 .1-.2.2 0 0-.3 0 .1.1 0V.6a.3.3 0 0 1 .4 0v.1-.2l.1.1s0 .2.1.1V.5h.1v.2h.2c0 .2 0 0-.1 0V.5l.2.1c.1 0 0-.1 0-.2.1-.2.2.2.2.1.1 0 0 .1 0 0h.1c0-.2 0-.3.2-.1l.3-.2s.2 0 .3.2c0-.2.1-.1.2 0 0 0 0-.2.2-.2h.6l.3-.1h1.1l.3-.1H30.2c.1-.2.3.2.4 0h.1c0 .1.1 0 .2 0a.7.7 0 0 1 .6 0h.3v.3V0l.1.1.2-.1H34c0 .1 0 .2.1.1l.2.1h.5l.2-.1s0 .2.1.1a.4.4 0 0 1 .6 0c0 .1 0 .1.1 0h.9l1 .2c-.1.2 0-.2 0 0h.1l.2.1h.4V.2l.1.2-.2 2ZM14 4.7h.1l-.2-.2c-.1 0 .2.1 0 .2Zm-1.2 1.4h.3V6h-.3Zm-.6 1 .1.2V7h-.1Zm-.5 0v-.3c-.2 0-.1.3-.3.1.2.3.1 0 .3.1Zm.2.3.1.2v-.2Zm.1-.2V7l-.2.2h.2Zm1 .2h-.2v.1c-.1 0-.3-.1-.4 0 0 0-.1 0 0 .2v-.2l.1.1h.4s0-.2 0 0v-.1Zm.6-.3h-.2v.1l.1.1.1.1c-.2-.3 0-.2 0-.2Zm-.3-.6v-.2h-.1c.1-.1.2-.1.2.1 0-.2 0-.3-.1-.2H13s-.1 0 0 .1c-.3-.1-.3.2-.5.2v.2h.1-.1l-.1.1h.1V7c.1 0 0 0 0 0l.1.3.2-.1-.1.2h.1V7c0-.2-.1 0-.2-.2.2 0 0-.2.1-.3l.2-.2c.1 0 0 0 0 0 .1 0 .1 0 0 .1l-.1.3h.2V7.2l.2.1-.3-.3c.1 0 0-.2 0-.2h.2v-.1c-.1-.2.1 0 0-.2h.1Zm.5.3h-.2s0-.2-.2-.3c0 0 .1.1 0 .2l.1.1s0-.1 0 0l.2.2v-.2Zm.2-.2v.2c-.2-.2 0 0-.1 0V7c.1 0 .2 0 .2.2.1-.1 0-.2 0-.2v-.4s0 .2 0 0Zm.4 0c-.1-.1.1.3-.1.1l.2.3v-.3l-.1-.1Zm.3-.6s0 .1 0 0c0-.2.3.2.1-.2v-.1h-.1l-.1-.1-.2-.1h-.1c0 .1-.3 0-.3.2 0-.1 0 0-.2 0v.1c.1.2 0 0 0 .2v-.2c-.1 0-.1.4-.3.3h-.1l.2.3v-.2h.1v.1h.1V6c0 .2.1.2.2.3h.3c-.2-.1 0-.1 0-.2h-.1V6l.3-.2V6h.2Zm1 .3-.1-.2c-.1-.1 0 0-.1 0-.2-.2-.2.2-.4 0v.2H15c0-.2-.2 0-.2-.2v.4h.2s.2.1.2 0c0 0 .1.1.1 0a.4.4 0 0 1 .2-.4s.1.2 0 .1l.2.1Zm-.4-1H15h.1l.1.2v-.3Zm.5-.5V5c0 .1-.2 0 0 .3 0 0-.2-.1-.1 0 0 .1.1.2.2 0 0 .3-.2 0 0 .3h-.1c-.2-.3-.3-.3-.5-.3l.3.3.3.3-.2.1H16s.2 0 .2.2v-.2l-.1-.1H16c0-.1-.3-.3-.1-.4v-.1l-.1-.1v-.4Zm.5.6.2-.2s.1-.2.3-.2v-.1h-.4c0-.1 0 0 0 0V5v-.1h-.1v.2H16V5s.2.2.1 0l-.1-.3H16c0 .3.2.5.3.7Zm.7.5c0-.1 0-.3-.2-.3l-.2-.1s.1 0 0 .2v-.1l-.1-.1v.3c.1 0 .2.1.2 0h.2c.1.1 0 0 0 .2-.1 0 0 0 0 0s.2 0 .1-.1Zm.4-.5h-.1a.1.1 0 0 1-.2 0c-.2 0 0 .2-.2.1v.2h.2c0-.1.1 0 .2 0V6v-.2a.2.2 0 0 0 0-.3Zm.4-1h-.1v-.2l-.2.1h-.2v-.1.2l.2.1-.2.1v.2h.2a.3.3 0 0 1 .4-.2s-.2-.2 0-.2Zm.2 0v-.1l-.2.2h.2v-.2ZM17.8 3l-.2-.1V3h-.1l.2.2h.1V3Zm.7 1.1c-.2 0-.1 0-.1.2h-.1c.1.1.1 0 .2 0V4Zm1-.4v.1l.1-.1-.2-.1v.1H19v.1c.2.3 0 .1 0 .1H19V4h.4c.2.4.2 0 .3 0v-.1h-.1c0 .1 0 0-.1 0h-.1V3.5l.1.1Zm.4.2v-.1s-.2 0 0 0a.2.2 0 0 0 0-.3l-.2.1v.2c0 .1.1.1.2 0 0 0 0 .1 0 0Zm.2-1.4H20v.2c.2 0 .2-.1.2-.2Zm.6 1-.3-.1v.3l.2-.1V4l.1-.3Zm.4 0c-.2-.4 0 .1-.2 0V4s0-.2.1 0v-.3l.1-.2Zm.3-.4h-.2v.2h.2v-.2Zm1 .1v-.3c-.2-.2-.2 0-.4 0l.1.2h.1l.2.1Zm0-1.4.2-.1c0-.2-.1 0-.2 0Zm.3.8c-.1 0 0-.2-.1-.1v.1l-.1.3h.2-.2l.1-.3c0 .2 0 0 0 0Zm.3-.3c-.2-.1-.1.1-.2.2v.1s.2 0 .2-.2Zm.7 1-.3-.3v.3s.1-.1.2 0Zm.2-.3V3c-.1-.2-.2 0-.3-.1l-.1.1v.2c.1 0 0 0 0-.1v-.2l.2.1c0 .3.1.1.2.2Zm.7-.6c-.2.1-.2 0-.2-.1v-.1c-.2 0 0 .2 0 .3 0 .2 0 0 .2 0v-.1Zm0-1.1h.2l-.1-.2h-.1l-.2-.1.1.3h.1Zm.4 1s-.1-.1-.2 0v.1h.2ZM25 1.2V1h-.1v.1h.1Zm.5 1.7-.2-.2v.1c0 .4.1-.1.2 0Zm0 .1.1.3V3ZM25.4.8c-.1 0 0 .2 0 .2v.2c0-.1 0-.1.1 0 0-.2-.2-.2-.1-.4Zm1.5-.2h-.1V.8c.1.2.1 0 .1 0V.5Zm.7.8h-.2v.1l.2-.1Zm.2.5-.2-.2v.1l.2.2V2Zm1 0v-.1c-.2 0 0 .2 0 .3V2Zm.1-.3-.2.1v.1h.2v-.2Zm.1-.9h-.1V1l.1-.2Zm.4.1v.3s0 .1 0 0V.8Zm.5.5v.3l.1-.2v-.1Zm1.4 0v-.1l-.2.1s.1.1.2 0Zm0-.2c0 .3.1.2.2.2l-.2-.2Zm0 .6.2.3v-.2l-.1-.2v.1Zm.4.5-.3-.3v.2h.3Zm1.1-.8v-.2l-.2.1s0 .3.2.2Zm.7.5c0-.1 0 0-.1 0V2.2 2Zm3.6.5-.1-.1h-.1l.1.2.1-.1ZM13 6.9ZM12.8 6ZM18.6 5.4Z"/><path d="m17.9 5.6-.1-.1v.1h-.2v.1l.3.2h.2v-.4l-.2.1ZM11.7 8c-.2 0-.2.3-.3 0v.3h.2V8ZM18.2 5.6c0-.1 0-.2 0 0s0-.2-.1 0v.2c.2.2.2-.1.3-.2 0 0-.2-.2-.2 0ZM11.5 5.7c.1 0 .2 0 .3-.2h-.5v.1l.2.1ZM18.5 5.3s-.2 0-.1.2c0 .1-.2-.2 0 0 .1.2.2.1.2 0l-.1-.2ZM15 3.8c-.2-.2-.2.2-.3 0V4h.2a.1.1 0 0 0 0-.1ZM19.5 5.2V5l-.1-.1V5l.1.2ZM22.7 4V4l-.1.2c0 .2.1-.2.2 0ZM15.2 3.8c0 .1 0 0 0 0V4.2v-.3ZM15.3 4ZM20.2 4.7l.1.2v-.3s0 .2-.1 0ZM37 2.6l.1.3c0-.3-.2 0-.2-.3ZM28 3l-.1.2.2-.1L28 3ZM25.1 3.5v.2h.2v-.2H25ZM29.9 2.8h-.1l.1.1v-.1ZM33.1 2.3v.1c0 .2 0-.1 0 0 .1 0 0 0 0 0ZM22 4.2v.3c.1 0 .1 0 0-.1 0-.2.1-.1.2 0 0-.2-.2-.1-.2-.2ZM11.6 5.5l.1-.2s-.2 0 0 .2Z"/><path d="m20.1 4.6.1.3V4.6ZM20.2 4.8ZM28.5 2.6c0-.1 0-.1 0 0v.2-.2ZM27.3 3.2h.2-.2ZM14.8 6c0-.2-.1-.1-.2-.2 0-.2-.1-.3-.1 0l.2.1ZM14 5.8l.2.1v-.1h-.1ZM41.4 2.4c0 .1-.1.3-.2.2 0-.2 0-.1-.1-.1 0 .3-.4 0-.3.4l-.3.2v-.4h.2l-.2-.1v.2h-.3a.4.4 0 0 0-.4-.1s-.2-.1-.1 0v.1h.1a.4.4 0 0 0-.6 0H39V3h.2s-.1.1-.2 0h-.4c0 .2 0 0 0 0-.2.2-.2.2-.2 0v-.1c-.1.1-.1-.1-.2 0v-.4l.2.1h.2l-.4-.2.2-1.7h.1V.5c0 .4.2 0 .3.2l.1.1h.1V.7h1a.7.7 0 0 1 .5.3V.9l.2.1s0 .2.2 0c0 0 0 .1 0 0h.1c.2 0 .1.3.1.4l.1.2h-.2v.2h.1c-.2 0-.1.3-.2.4h.1l.3.2Zm-2.7-.1-.1-.2v.2h.1Zm0 .4h-.2c0 .2 0 .2 0 0 .1 0 0 .2.2.1v-.1Zm.5-.2v-.1H39v-.2.1l-.1.1c-.1 0-.2 0-.1.3v-.2h.4Zm.2-.1-.2-.2c-.2 0 0 0 0 0v.2h.2ZM41.6 1.5v.3V1.5ZM9.3 10.2ZM6.8 11.6l-.4-.3c.2-.2.1-.4.3-.5v-.2c0-.1.1 0 .2 0 .2 0 0 .2.1.2v.1h.3-.1c.1-.2-.3-.4-.2-.6-.2-.1 0-.2 0-.3h-.2l.7-.7.2-.3H8h-.1l-.1.2h.1L8 9c0-.1 0 0 .1 0-.1.2 0 0 0 .1.2-.2.4.7.5 0H9v.2H9V9l.2.1.5.5v.1s-.1.1 0 .2l-.1.1h-.2V10.4l-.1.1c-.3 0-.3.2-.3.3-.1 0 0 0 0 0h-.1c0-.1 0 0 0 0s.1.2-.1 0l-.1.3V11.4c0 .2-.2.1-.3.3v.2c-.1.1 0 0 0 0v.2h-.1V12v.1s0 .3-.2.2v.1H8l-.1-.2h-.4L7 12h.1v-.1l-.3-.2ZM8 10l.2-.1v-.2H8v.3Zm-.2.6.2-.4V10c0 .2-.3 0-.2.2v.3Zm-.9.9.2-.1c.1 0-.1 0 0-.1H7v.2Z"/><path d="M6.3 11.2s.2 0 .1-.2h.1c0-.2-.2 0-.3 0h.1c0 .2 0 .1-.1 0l-.1.2.2.1ZM6.5 10.8c.1 0 .2-.2-.1-.3.1.1.2.2 0 .3ZM6.4 10.5ZM6.3 10.5ZM6.8 10.4h-.3v.1h.3Z"/><path d="M4.5 15.5c-.2 0-.3-.2 0-.3.1-.1 0-.2 0-.2-.3 0 .2-.4-.2-.3.2-.2 0-.3 0-.5.1.1 0-.1.2 0 0 0 0 .1.1 0V14.5l.2-.2h-.1l.1-.4c.2-.1.3-.3.3-.5l.1-.1s.1-.1 0 0H5a1 1 0 0 0 .3-.8l.2-.1h-.3v.2a.2.2 0 0 1 0-.3h.1l.4-.5h-.2l.1-.2c0-.2 0-.1.2 0v-.1c0-.2.2-.1.2-.2v-.1h.2l.2.2-.3.2v.3l.3-.4v-.1l1.5 1-.1.1H8v.2c-.3-.3-.2.1-.3.1-.2 0-.2.1-.3.2V13.4a7.2 7.2 0 0 1-.6 1l-.5.5.1.2h-.1c0 .1-.3.2-.2.3l-.1.1c.1.1 0 .2 0 0 0 .3-.3.2-.4.2-.1-.1-.2 0-.2 0V15.3h-.1l-.1.1c0-.3-.2-.2-.3-.3v.1l-.3.3ZM6.3 12l.2-.1v-.2l-.2.2Zm-.4-.2.2-.2H6c-.1-.2 0-.1 0 0 0 0-.2-.1-.2 0v.2H6Zm-.1.6h.1v-.1h.4l-.2-.1v-.1c0-.2 0-.3-.2-.3v.2l-.1.4Zm0 .4.3-.3c0-.2 0 0-.1 0-.1-.1 0 .1-.2 0v.3ZM5.3 16h-.4l.1.1h.3ZM27 54.1v.1c-.1.1 0 0 0 .2v-.2.1h.1v-.2ZM26.8 54.2v.3-.2ZM26.6 54.2v.2-.2ZM27 52.3ZM48.6 53.8ZM42 53ZM29 52.9ZM32.8 54.5v-.1h-.2v.2l.2.2.1.1v-.3ZM27.3 54.2c0-.2-.1 0-.2-.2v.2h.2ZM33.1 54.7c0-.2 0-.2 0 0-.1 0 0-.3-.1-.2v.3c0 .2.2 0 .2 0v-.2s-.1-.2-.1 0ZM28.1 52h.3l-.3-.2v.2Z"/><path d="M33.4 54.5h-.2v.1c0 .3.1.2.2 0v-.1ZM31.1 51.8c0-.3 0 0-.1 0h-.1l.1.1a.1.1 0 0 0 .1 0v-.1ZM34.2 54.6v-.2H34l.1.2ZM37 54.4v-.1s-.1 0 0 .1v.1s.1 0 0-.1ZM31.4 51.9h-.1V52.2 51.8ZM31.3 52.1ZM34.9 54.4v.2-.3s0 .2 0 0ZM48.8 54l.1.2-.1-.3ZM41.4 54.3v.2-.2ZM39 54.3v.3h.1v-.2ZM43 54.2v.1c-.1 0 0 0 0 0 0-.1 0 0 0 0ZM45.7 53.9h-.1v.1-.1ZM36.4 54.4v.3-.1c0-.2 0-.1.1 0v-.2ZM28.3 51.9l.1-.1s-.2-.1-.1 0ZM34.8 54.3v.3V54.3ZM41.9 54c0-.2 0-.2 0 0v.1-.1ZM40.8 54.4h.2-.1ZM30.4 53.6v-.2c0-.1-.1-.2-.2 0l.1.2ZM29.9 53.3h.1v-.1h-.1ZM52.3 53c0 .2 0 .3-.1.2H52c0 .3-.3.1-.1.4-.2 0-.2.2-.3.3v-.4h.1l-.2-.1v.1h-.2a.3.3 0 0 0-.3 0s0 .1 0 0c0 0-.1 0 0 .2a.3.3 0 0 0-.4.2s0-.1-.1 0v.2l.2-.1-.1.2-.1-.1h-.3c0 .2 0 0 0 0-.1.2-.1.2-.2 0 0 0-.1-.1-.2 0v-.5l.2.2.1-.2H50v-1.8h.1c0 .3.1 0 .2 0l.1.2.1-.2h.7a.4.4 0 0 1 .5.1v-.2.1c.1 0 .2.2.3 0 0-.1 0-.1 0 0 .2 0 .2.2.2.3l.1.2-.1.1v.1c-.1.1 0 .3 0 .4l.2.1Zm-2.1.4-.1-.2H50l.1.2Zm0 .4h-.1v.1c0 .1 0 .1 0 0s0 .2 0 0l.1-.1Zm.3-.3h-.1v-.2h-.1v.5-.1l.2-.2Zm.2-.1-.2-.2v.2h.2ZM52.3 52v.1l.1.3V52.1ZM124.3 53v-.4h.1v.2l.1-.2c.1 0 0 0 0 0v-.2c.1 0 0 0 0 0h.3v.1c.1 0 0 0 0 0v.2s0 .4.1.2h.1v.1c0 .1 0 0 0 0V53.6h-.2c0-.1 0 0-.1 0 0 0 0 .2 0 0v.1h-.1c0 .1 0 0-.1 0v.1h-.1V53l-.1-.2Zm.4 0h.1v-.1Zm0 .1V53s0-.1 0 0v.1Zm-.3-.1ZM124.4 52.5ZM124.4 52.5v-.2.2ZM124.4 52.3ZM124.5 52.5v-.1ZM115.7 52.5h.1v-.2l.1.1c0 .1.1.1.1 0v.1s.1.1.1 0c.1 0 0-.2.1-.1l.1.2c0-.1.1-.2.1 0v-.1h.1c0-.2 0 0 .1 0 0 .1 0 .1 0 0l.1.1v-.1s.1-.1 0 0h.2v.2-.1c0-.1 0 .1 0 0v-.1H117.3c0-.1 0 .1 0 0h.1c0 .1 0 0 .1 0h.2c0-.1 0 0 .1 0l.2-.1v.1c0 .1 0 0 0 0 0-.2.1 0 .1-.1 0 .1.1 0 .1 0v-.1h.1v.4-.2h.1v-.2.2l.1-.1c0 .2 0 0 0 0v.1h.4v-.2.2h.1v.1-.1.1V52.2v.2h-.2v.1-.2l-.1.1h-.1v-.1s0 .2 0 0h-.1v-.1.1a.6.6 0 0 0 0 .1h-.1v.2-.2h-.1v-.2.1s-.1.1-.1 0l-.1.1h-.1s0 .1 0 0v.1l-.1.2h-.1v-.2s.1.2.1 0v-.2c0 .1 0 0 0 0h-.2l-.1.1h-.1s0 .1 0 0h-.1c0 .1 0-.1-.1 0h-.2v.1c0 .1 0-.1 0 0v-.1h-.2v.1h-.1c-.1-.1-.2-.3-.2 0v-.1h-.1v.2l-.1-.2v-.1l-.1.1c0 .1-.1 0-.1 0v.2s0 .1 0 0V52.3c-.1.1-.1.1-.2 0 0-.1 0 0 0 0v.1h-.2ZM122 52.2h.1v.1-.2c0-.1 0 0 0 0v.1ZM124.2 52.5v.1-.1ZM122 52.2s0 .1 0 0c0-.2-.1 0-.2 0 .1 0 .1.1.1 0ZM123.9 53.8h-.1l.1.2v-.2Z"/><path d="M121.8 52.3c0-.1.1 0 .1 0 0-.2 0-.2 0 0ZM122.7 54s0-.1 0 0v-.1ZM121.5 52.2v.1-.1ZM120.4 52.3c0-.2 0 0 0 0ZM122.6 53.9v-.2.2ZM121.3 52.4v-.1s0-.1 0 0v.1s0-.1 0 0ZM115.8 52.5v-.2.2ZM118.7 52.3ZM119.6 52.3v-.1.1ZM118 52.4v-.1ZM117 52.6v-.1c0-.1 0 0 0 0ZM120.6 52.3v-.2c.1 0 0 0 0 .1v.1ZM123.8 53.9s0 .1 0 0ZM121.3 52.4v-.2.2ZM118.5 52.6v-.2.1ZM119 52.3h-.1ZM123 52.8v.1c0 .1 0 .2 0 0 0-.1 0-.1 0 0ZM123.2 53ZM114.4 53v-.1h.1c0-.2.1 0 0-.2l.1-.2c0 .1 0 0 0 0v.2H115v-.1h.2v-.2h.1c0-.1 0 0 0 0 .1-.1.1-.1.1 0 0 0 0 .1 0 0v1.3c0-.1 0 0 0 0H114.6v.1s0-.1 0 0l-.1-.2V53l-.2-.1Zm.9-.2v.1-.1Zm0-.2c0-.2 0-.2 0 0v-.1Zm-.2.1v.1c.1 0 0 0 0 0l.1.1V52.5v.1Zm0 .1v.1-.1ZM114.4 53.6v-.2.2Z"/></g></svg>
