<svg xmlns="http://www.w3.org/2000/svg" version="1.1" xmlns:xlink="http://www.w3.org/1999/xlink" xmlns:svgjs="http://svgjs.dev/svgjs" width="1000" height="623" viewBox="0 0 1000 623"><g transform="matrix(1,0,0,1,-0.6060606060606233,0.2522267206477409)"><svg viewBox="0 0 396 247" data-background-color="#ffffff" preserveAspectRatio="xMidYMid meet" height="623" width="1000" xmlns="http://www.w3.org/2000/svg" xmlns:xlink="http://www.w3.org/1999/xlink"><g id="tight-bounds" transform="matrix(1,0,0,1,0.2400000000000091,-0.09999999999999432)"><svg viewBox="0 0 395.52 247.2" height="247.2" width="395.52"><g><svg></svg></g><g><svg viewBox="0 0 395.52 247.2" height="247.2" width="395.52"><g transform="matrix(1,0,0,1,75.54432,93.05819237032293)"><svg viewBox="0 0 244.43135999999998 61.083615259354126" height="61.083615259354126" width="244.43135999999998"><g><svg viewBox="0 0 244.43135999999998 61.083615259354126" height="61.083615259354126" width="244.43135999999998"><g><svg viewBox="0 0 244.43135999999998 61.083615259354126" height="61.083615259354126" width="244.43135999999998"><g><svg viewBox="0 0 244.43135999999998 61.083615259354126" height="61.083615259354126" width="244.43135999999998"><g><svg viewBox="0 0 244.43135999999998 61.083615259354126" height="61.083615259354126" width="244.43135999999998"><g><svg viewBox="0 0 244.43135999999998 61.083615259354126" height="61.083615259354126" width="244.43135999999998"><g transform="matrix(1,0,0,1,0,0)"><svg width="244.43135999999998" viewBox="0.7910714149475098 -36.75 149.03892517089844 37.25" height="61.083615259354126" data-palette-color="#8cb032"><path d="M18.3 0.3L18.3 0.3Q17.75 0.3 17.1-0.33 16.45-0.95 16.15-2.3L16.15-2.3 15.5-5.65Q15.1-7.55 14.78-9.6 14.45-11.65 14.2-13.6 13.95-15.55 13.78-17.13 13.6-18.7 13.53-19.65 13.45-20.6 13.45-20.6L13.45-20.6 12.85-22.9Q12.8-23.25 13.03-23.78 13.25-24.3 13.7-24.3L13.7-24.3 15.7-24.3 17.65-13.8Q18-12.4 18.28-10.8 18.55-9.2 18.75-7.8 18.95-6.4 19.07-5.53 19.2-4.65 19.2-4.65L19.2-4.65 19.45-4.65Q19.6-6.2 19.83-8.28 20.05-10.35 20.38-12.6 20.7-14.85 21-16.85L21-16.85 22.3-24.1Q22.35-24.55 22.58-24.73 22.8-24.9 23.63-24.95 24.45-25 26.3-25L26.3-25Q26.3-25 26.03-23.65 25.75-22.3 25.28-20.05 24.8-17.8 24.25-15.1 23.7-12.4 23.13-9.73 22.55-7.05 22.05-4.8 21.55-2.55 21.25-1.2 20.95 0.15 20.9 0.15L20.9 0.15Q20.9 0.15 20.23 0.23 19.55 0.3 18.3 0.3ZM7.35 0.3L7.35 0.3Q6.7 0.3 6.28-0.4 5.85-1.1 5.6-2.15L5.6-2.15Q5.25-3.7 4.75-5.88 4.25-8.05 3.73-10.53 3.2-13 2.68-15.43 2.15-17.85 1.73-19.83 1.3-21.8 1.05-22.98 0.8-24.15 0.8-24.15L0.8-24.15Q0.75-24.6 0.98-24.75 1.2-24.9 2.15-24.95 3.1-25 5.2-25L5.2-25 6.7-16.85Q7.1-14.75 7.43-12.6 7.75-10.45 7.98-8.65 8.2-6.85 8.33-5.75 8.45-4.65 8.45-4.65L8.45-4.65 8.75-4.65Q8.85-5.55 9.08-7.13 9.3-8.7 9.6-10.53 9.9-12.35 10.15-13.9L10.15-13.9 11.7-23.45Q11.8-24 12.05-24.15 12.3-24.3 13.05-24.3L13.05-24.3 14.15-24.3Q14.65-24.3 14.6-24.05 14.55-23.8 14.33-23.48 14.1-23.15 14.05-22.9L14.05-22.9 13.95-20.65Q13.95-20.65 13.85-19.73 13.75-18.8 13.58-17.18 13.4-15.55 13.15-13.6 12.9-11.65 12.6-9.58 12.3-7.5 11.85-5.65L11.85-5.65 10.75 0.15Q10.75 0.15 10.15 0.18 9.55 0.2 8.78 0.25 8 0.3 7.35 0.3ZM35.1 0.5L35.1 0.5Q33.7 0.5 32.42 0.28 31.15 0.05 30.15-0.73 29.15-1.5 28.55-3 27.95-4.5 27.95-7.1L27.95-7.1Q27.95-9.7 28.5-11.33 29.05-12.95 30-13.83 30.95-14.7 32.15-15 33.35-15.3 34.6-15.3L34.6-15.3Q35.4-15.3 36.47-15.15 37.55-15 38.3-14.65L38.3-14.65Q38.3-14.65 38.3-15.35 38.3-16.05 38.3-16.98 38.3-17.9 38.3-18.6L38.3-18.6Q38.3-19.8 37.92-20.43 37.55-21.05 36.87-21.33 36.2-21.6 35.2-21.6L35.2-21.6Q33.25-21.6 31.45-21.25 29.65-20.9 28.55-20.45L28.55-20.45Q28.2-21.05 28.1-21.68 28-22.3 28-22.8L28-22.8Q28-23.15 28.12-23.55 28.25-23.95 28.55-24.15L28.55-24.15Q29.2-24.55 31.25-25.03 33.3-25.5 36.15-25.5L36.15-25.5Q39.4-25.5 40.87-24.15 42.35-22.8 42.35-19.4L42.35-19.4 42.35-16.75Q42.35-13.9 42.32-11.03 42.3-8.15 42.25-5.63 42.2-3.1 42.05-1.2L42.05-1.2Q41.05-0.6 39.3-0.05 37.55 0.5 35.1 0.5ZM35.5-2.9L35.5-2.9Q36.3-2.9 37.05-3.15 37.8-3.4 38.1-3.75L38.1-3.75Q38.2-4.55 38.22-5.95 38.25-7.35 38.27-8.9 38.3-10.45 38.3-11.8L38.3-11.8Q37.8-12.05 37.12-12.15 36.45-12.25 35.95-12.25L35.95-12.25Q35.15-12.25 34.47-12.08 33.8-11.9 33.3-11.38 32.8-10.85 32.5-9.85 32.2-8.85 32.2-7.2L32.2-7.2Q32.2-5.85 32.42-5 32.65-4.15 33.1-3.68 33.55-3.2 34.15-3.05 34.75-2.9 35.5-2.9ZM46.49 0L46.49 0 46.49-34.9Q46.49-35.85 46.82-36.23 47.15-36.6 48.05-36.68 48.95-36.75 50.55-36.75L50.55-36.75 50.55-0.8Q50.55-0.4 50.37-0.25 50.2-0.1 49.37-0.05 48.55 0 46.49 0ZM61.94 0.5L61.94 0.5Q59.84 0.5 58.82-0.43 57.79-1.35 57.49-3.03 57.19-4.7 57.19-6.95L57.19-6.95 57.19-21.5 53.79-21.5Q53.79-23.1 53.82-23.83 53.84-24.55 54.04-24.78 54.24-25 54.64-25L54.64-25 57.19-25 57.19-32.6Q57.19-33.35 57.52-33.63 57.84-33.9 58.72-33.95 59.59-34 61.24-34L61.24-34 61.24-25 66.34-25Q66.34-23.45 66.32-22.7 66.29-21.95 66.12-21.73 65.94-21.5 65.54-21.5L65.54-21.5 61.24-21.5 61.24-6.95Q61.24-5.9 61.32-4.98 61.39-4.05 61.77-3.53 62.14-3 63.04-3L63.04-3Q63.89-3 64.54-3.18 65.19-3.35 65.94-3.75L65.94-3.75Q66.04-3.35 66.14-2.85 66.24-2.35 66.24-1.7L66.24-1.7Q66.24-0.8 65.57-0.33 64.89 0.15 63.92 0.33 62.94 0.5 61.94 0.5ZM76.04 0.5L76.04 0.5Q74.34 0.5 72.87 0.03 71.39-0.45 70.31-1.7 69.24-2.95 68.67-5.25 68.09-7.55 68.09-11.2L68.09-11.2Q68.09-15.9 68.84-18.75 69.59-21.6 70.84-23.05 72.09-24.5 73.69-25 75.29-25.5 76.94-25.5L76.94-25.5Q80.09-25.5 81.69-23.5 83.29-21.5 83.29-17.45L83.29-17.45Q83.29-15.8 83.17-14.05 83.04-12.3 82.69-10.95L82.69-10.95Q80.99-10.6 78.89-10.45 76.79-10.3 74.89-10.23 72.99-10.15 71.77-10.15 70.54-10.15 70.54-10.15L70.54-10.15 70.59-13.45Q70.59-13.45 71.54-13.43 72.49-13.4 73.87-13.43 75.24-13.45 76.67-13.58 78.09-13.7 79.09-14L79.09-14Q79.24-14.7 79.29-15.5 79.34-16.3 79.34-17L79.34-17Q79.29-19.7 78.72-20.83 78.14-21.95 76.49-21.95L76.49-21.95Q75.64-21.95 74.87-21.48 74.09-21 73.49-19.83 72.89-18.65 72.56-16.6 72.24-14.55 72.24-11.35L72.24-11.35Q72.24-9 72.52-7.45 72.79-5.9 73.37-5.05 73.94-4.2 74.81-3.83 75.69-3.45 76.94-3.45L76.94-3.45Q78.44-3.45 79.92-3.85 81.39-4.25 82.59-5L82.59-5Q82.84-4.4 82.92-3.63 82.99-2.85 82.99-2.25L82.99-2.25Q82.99-1.5 82.04-0.85 81.09-0.2 79.52 0.15 77.94 0.5 76.04 0.5ZM86.84 0L86.84 0 86.84-23.25Q88.29-24.3 90.04-24.9 91.79-25.5 93.64-25.5L93.64-25.5Q95.59-25.5 96.36-24.98 97.14-24.45 97.14-23.4L97.14-23.4Q97.14-23 97.04-22.33 96.94-21.65 96.69-21L96.69-21Q96.14-21.3 95.54-21.45 94.94-21.6 94.29-21.6L94.29-21.6Q93.44-21.6 92.56-21.33 91.69-21.05 90.99-20.5L90.99-20.5 90.94-0.8Q90.94-0.4 90.76-0.25 90.59-0.1 89.74-0.05 88.89 0 86.84 0ZM123.93 0.3L123.93 0.3Q123.38 0.3 122.73-0.33 122.08-0.95 121.78-2.3L121.78-2.3 121.13-5.65Q120.73-7.55 120.41-9.6 120.08-11.65 119.83-13.6 119.58-15.55 119.41-17.13 119.23-18.7 119.16-19.65 119.08-20.6 119.08-20.6L119.08-20.6 118.48-22.9Q118.43-23.25 118.66-23.78 118.88-24.3 119.33-24.3L119.33-24.3 121.33-24.3 123.28-13.8Q123.63-12.4 123.91-10.8 124.18-9.2 124.38-7.8 124.58-6.4 124.71-5.53 124.83-4.65 124.83-4.65L124.83-4.65 125.08-4.65Q125.23-6.2 125.46-8.28 125.68-10.35 126.01-12.6 126.33-14.85 126.63-16.85L126.63-16.85 127.93-24.1Q127.98-24.55 128.21-24.73 128.43-24.9 129.26-24.95 130.08-25 131.93-25L131.93-25Q131.93-25 131.66-23.65 131.38-22.3 130.91-20.05 130.43-17.8 129.88-15.1 129.33-12.4 128.76-9.73 128.18-7.05 127.68-4.8 127.18-2.55 126.88-1.2 126.58 0.15 126.53 0.15L126.53 0.15Q126.53 0.15 125.86 0.23 125.18 0.3 123.93 0.3ZM112.98 0.3L112.98 0.3Q112.33 0.3 111.91-0.4 111.48-1.1 111.23-2.15L111.23-2.15Q110.88-3.7 110.38-5.88 109.88-8.05 109.36-10.53 108.83-13 108.31-15.43 107.78-17.85 107.36-19.83 106.93-21.8 106.68-22.98 106.43-24.15 106.43-24.15L106.43-24.15Q106.38-24.6 106.61-24.75 106.83-24.9 107.78-24.95 108.73-25 110.83-25L110.83-25 112.33-16.85Q112.73-14.75 113.06-12.6 113.38-10.45 113.61-8.65 113.83-6.85 113.96-5.75 114.08-4.65 114.08-4.65L114.08-4.65 114.38-4.65Q114.48-5.55 114.71-7.13 114.93-8.7 115.23-10.53 115.53-12.35 115.78-13.9L115.78-13.9 117.33-23.45Q117.43-24 117.68-24.15 117.93-24.3 118.68-24.3L118.68-24.3 119.78-24.3Q120.28-24.3 120.23-24.05 120.18-23.8 119.96-23.48 119.73-23.15 119.68-22.9L119.68-22.9 119.58-20.65Q119.58-20.65 119.48-19.73 119.38-18.8 119.21-17.18 119.03-15.55 118.78-13.6 118.53-11.65 118.23-9.58 117.93-7.5 117.48-5.65L117.48-5.65 116.38 0.15Q116.38 0.15 115.78 0.18 115.18 0.2 114.41 0.25 113.63 0.3 112.98 0.3ZM142.33 0.5L142.33 0.5Q139.33 0.5 137.73-0.4 136.13-1.3 135.51-3.15 134.88-5 134.88-7.8L134.88-7.8 134.88-24.2Q134.88-24.6 135.03-24.75 135.18-24.9 136.06-24.95 136.93-25 139.03-25L139.03-25 139.03-7.45Q139.03-5.85 139.31-4.88 139.58-3.9 140.31-3.48 141.03-3.05 142.38-3.05L142.38-3.05Q143.08-3.05 144.03-3.25 144.98-3.45 145.78-3.95L145.78-3.95 145.78-24.2Q145.78-24.6 145.96-24.75 146.13-24.9 146.96-24.95 147.78-25 149.83-25L149.83-25 149.83-1.3Q148.38-0.5 146.38 0 144.38 0.5 142.33 0.5Z" opacity="1" transform="matrix(1,0,0,1,0,0)" fill="#8cb032" class="undefined-text-0" data-fill-palette-color="primary" id="text-0"></path></svg></g></svg></g></svg></g></svg></g></svg></g></svg></g></svg></g><path d="M196.16 87.058L196.16 28.531 386.298 28.531 386.298 218.669 196.16 218.669 196.16 160.142 201.668 160.142 201.668 213.16 380.789 213.16 380.789 34.04 201.668 34.04 201.668 87.058Z" fill="#8cb032" stroke="transparent" data-fill-palette-color="primary"></path></svg></g><defs></defs></svg><rect width="395.52" height="247.2" fill="none" stroke="none" visibility="hidden"></rect></g></svg></g></svg>